<?xml version="1.0" encoding="UTF-8" standalone="yes"?>
<svg xmlns="http://www.w3.org/2000/svg" width="256" height="256">
  <defs>
    <clipPath id="clip-path-dot-color">
      <path d="M 3 93v 10h 5a 5 5, 0, 0, 0, 0 -10" transform="rotate(180,8,98)"/>
      <path d="M 3 123v 10h 5a 5 5, 0, 0, 0, 0 -10" transform="rotate(180,8,128)"/>
      <path d="M 3 143v 10h 10v -5a 5 5, 0, 0, 0, -5 -5" transform="rotate(-90,8,148)"/>
      <path d="M 3 163v 10h 5a 5 5, 0, 0, 0, 0 -10" transform="rotate(90,8,168)"/>
      <path d="M 23 83v 10h 5a 5 5, 0, 0, 0, 0 -10" transform="rotate(-90,28,88)"/>
      <path d="M 23 93v 10h 10v -5a 5 5, 0, 0, 0, -5 -5" transform="rotate(90,28,98)"/>
      <path d="M 23 113v 10h 10v -5a 5 5, 0, 0, 0, -5 -5" transform="rotate(-90,28,118)"/>
      <path d="M 23 163v 10h 5a 5 5, 0, 0, 0, 0 -10" transform="rotate(180,28,168)"/>
      <path d="M 33 113v 10h 10v -5a 5 5, 0, 0, 0, -5 -5" transform="rotate(0,38,118)"/>
      <path d="M 43 83v 10h 10v -5a 5 5, 0, 0, 0, -5 -5" transform="rotate(-90,48,88)"/>
      <path d="M 43 93v 10h 10v -5a 5 5, 0, 0, 0, -5 -5" transform="rotate(180,48,98)"/>
      <path d="M 43 143v 10h 10v -5a 5 5, 0, 0, 0, -5 -5" transform="rotate(0,48,148)"/>
      <path d="M 43 163v 10h 10v -5a 5 5, 0, 0, 0, -5 -5" transform="rotate(90,48,168)"/>
      <path d="M 53 93v 10h 10v -5a 5 5, 0, 0, 0, -5 -5" transform="rotate(90,58,98)"/>
      <path d="M 63 83v 10h 5a 5 5, 0, 0, 0, 0 -10" transform="rotate(0,68,88)"/>
      <path d="M 63 163v 10h 5a 5 5, 0, 0, 0, 0 -10" transform="rotate(180,68,168)"/>
      <path d="M 73 93v 10h 5a 5 5, 0, 0, 0, 0 -10" transform="rotate(180,78,98)"/>
      <path d="M 73 153v 10h 10v -5a 5 5, 0, 0, 0, -5 -5" transform="rotate(-90,78,158)"/>
      <path d="M 73 163v 10h 10v -5a 5 5, 0, 0, 0, -5 -5" transform="rotate(90,78,168)"/>
      <path d="M 83 13v 10h 5a 5 5, 0, 0, 0, 0 -10" transform="rotate(180,88,18)"/>
      <path d="M 83 43v 10h 5a 5 5, 0, 0, 0, 0 -10" transform="rotate(180,88,48)"/>
      <path d="M 83 83v 10h 10v -5a 5 5, 0, 0, 0, -5 -5" transform="rotate(-90,88,88)"/>
      <path d="M 83 93v 10h 10v -5a 5 5, 0, 0, 0, -5 -5" transform="rotate(90,88,98)"/>
      <path d="M 83 153v 10h 5a 5 5, 0, 0, 0, 0 -10" transform="rotate(0,88,158)"/>
      <path d="M 83 173v 10h 5a 5 5, 0, 0, 0, 0 -10" transform="rotate(180,88,178)"/>
      <path d="M 83 193v 10h 5a 5 5, 0, 0, 0, 0 -10" transform="rotate(-90,88,198)"/>
      <path d="M 83 203v 10h 10v -5a 5 5, 0, 0, 0, -5 -5" transform="rotate(180,88,208)"/>
      <path d="M 93 13v 10h 5a 5 5, 0, 0, 0, 0 -10" transform="rotate(0,98,18)"/>
      <path d="M 93 53v 10h 5a 5 5, 0, 0, 0, 0 -10" transform="rotate(90,98,58)"/>
      <path d="M 93 73v 10h 10v -5a 5 5, 0, 0, 0, -5 -5" transform="rotate(-90,98,78)"/>
      <path d="M 93 163v 10h 5a 5 5, 0, 0, 0, 0 -10" transform="rotate(-90,98,168)"/>
      <path d="M 93 213v 10h 5a 5 5, 0, 0, 0, 0 -10" transform="rotate(90,98,218)"/>
      <path d="M 103 3v 10h 5a 5 5, 0, 0, 0, 0 -10" transform="rotate(180,108,8)"/>
      <path d="M 103 63v 10h 5a 5 5, 0, 0, 0, 0 -10" transform="rotate(-90,108,68)"/>
      <path d="M 103 83v 10h 10v -5a 5 5, 0, 0, 0, -5 -5" transform="rotate(90,108,88)"/>
      <path d="M 103 193v 10h 10v -5a 5 5, 0, 0, 0, -5 -5" transform="rotate(-90,108,198)"/>
      <path d="M 103 223v 10h 5a 5 5, 0, 0, 0, 0 -10" transform="rotate(180,108,228)"/>
      <path d="M 113 3v 10h 10v -5a 5 5, 0, 0, 0, -5 -5" transform="rotate(0,118,8)"/>
      <path d="M 113 13v 10h 5a 5 5, 0, 0, 0, 0 -10" transform="rotate(90,118,18)"/>
      <path d="M 113 53v 10h 5a 5 5, 0, 0, 0, 0 -10" transform="rotate(90,118,58)"/>
      <path d="M 113 203v 10h 10v -5a 5 5, 0, 0, 0, -5 -5" transform="rotate(90,118,208)"/>
      <path d="M 113 243v 10h 5a 5 5, 0, 0, 0, 0 -10" transform="rotate(180,118,248)"/>
      <path d="M 123 33v 10h 10v -5a 5 5, 0, 0, 0, -5 -5" transform="rotate(-90,128,38)"/>
      <path d="M 123 63v 10h 5a 5 5, 0, 0, 0, 0 -10" transform="rotate(-90,128,68)"/>
      <path d="M 123 73v 10h 5a 5 5, 0, 0, 0, 0 -10" transform="rotate(90,128,78)"/>
      <path d="M 123 173v 10h 10v -5a 5 5, 0, 0, 0, -5 -5" transform="rotate(0,128,178)"/>
      <path d="M 123 193v 10h 10v -5a 5 5, 0, 0, 0, -5 -5" transform="rotate(90,128,198)"/>
      <path d="M 123 213v 10h 5a 5 5, 0, 0, 0, 0 -10" transform="rotate(-90,128,218)"/>
      <path d="M 123 243v 10h 10v -5a 5 5, 0, 0, 0, -5 -5" transform="rotate(90,128,248)"/>
      <path d="M 133 33v 10h 10v -5a 5 5, 0, 0, 0, -5 -5" transform="rotate(0,138,38)"/>
      <path d="M 133 163v 10h 5a 5 5, 0, 0, 0, 0 -10" transform="rotate(180,138,168)"/>
      <path d="M 133 233v 10h 5a 5 5, 0, 0, 0, 0 -10" transform="rotate(0,138,238)"/>
      <path d="M 143 43v 10h 5a 5 5, 0, 0, 0, 0 -10" transform="rotate(0,148,48)"/>
      <path d="M 143 163v 10h 10v -5a 5 5, 0, 0, 0, -5 -5" transform="rotate(0,148,168)"/>
      <path d="M 143 173v 10h 5a 5 5, 0, 0, 0, 0 -10" transform="rotate(90,148,178)"/>
      <path d="M 153 23v 10h 5a 5 5, 0, 0, 0, 0 -10" transform="rotate(-90,158,28)"/>
      <path d="M 153 33v 10h 10v -5a 5 5, 0, 0, 0, -5 -5" transform="rotate(180,158,38)"/>
      <path d="M 153 203v 10h 5a 5 5, 0, 0, 0, 0 -10" transform="rotate(180,158,208)"/>
      <path d="M 153 223v 10h 5a 5 5, 0, 0, 0, 0 -10" transform="rotate(180,158,228)"/>
      <path d="M 163 3v 10h 5a 5 5, 0, 0, 0, 0 -10" transform="rotate(-90,168,8)"/>
      <path d="M 163 13v 10h 5a 5 5, 0, 0, 0, 0 -10" transform="rotate(90,168,18)"/>
      <path d="M 163 33v 10h 10v -5a 5 5, 0, 0, 0, -5 -5" transform="rotate(0,168,38)"/>
      <path d="M 163 43v 10h 5a 5 5, 0, 0, 0, 0 -10" transform="rotate(90,168,48)"/>
      <path d="M 163 83v 10h 10v -5a 5 5, 0, 0, 0, -5 -5" transform="rotate(-90,168,88)"/>
      <path d="M 163 103v 10h 10v -5a 5 5, 0, 0, 0, -5 -5" transform="rotate(180,168,108)"/>
      <path d="M 163 163v 10h 10v -5a 5 5, 0, 0, 0, -5 -5" transform="rotate(-90,168,168)"/>
      <path d="M 163 223v 10h 10v -5a 5 5, 0, 0, 0, -5 -5" transform="rotate(90,168,228)"/>
      <path d="M 173 83v 10h 10v -5a 5 5, 0, 0, 0, -5 -5" transform="rotate(0,178,88)"/>
      <path d="M 173 113v 10h 5a 5 5, 0, 0, 0, 0 -10" transform="rotate(90,178,118)"/>
      <path d="M 183 123v 10h 10v -5a 5 5, 0, 0, 0, -5 -5" transform="rotate(-90,188,128)"/>
      <path d="M 183 133v 10h 5a 5 5, 0, 0, 0, 0 -10" transform="rotate(90,188,138)"/>
      <path d="M 183 223v 10h 10v -5a 5 5, 0, 0, 0, -5 -5" transform="rotate(180,188,228)"/>
      <path d="M 193 93v 10h 10v -5a 5 5, 0, 0, 0, -5 -5" transform="rotate(-90,198,98)"/>
      <path d="M 193 123v 10h 10v -5a 5 5, 0, 0, 0, -5 -5" transform="rotate(90,198,128)"/>
      <path d="M 193 233v 10h 10v -5a 5 5, 0, 0, 0, -5 -5" transform="rotate(180,198,238)"/>
      <path d="M 203 83v 10h 5a 5 5, 0, 0, 0, 0 -10" transform="rotate(-90,208,88)"/>
      <path d="M 203 133v 10h 10v -5a 5 5, 0, 0, 0, -5 -5" transform="rotate(-90,208,138)"/>
      <path d="M 203 143v 10h 5a 5 5, 0, 0, 0, 0 -10" transform="rotate(90,208,148)"/>
      <path d="M 203 163v 10h 10v -5a 5 5, 0, 0, 0, -5 -5" transform="rotate(0,208,168)"/>
      <path d="M 203 243v 10h 10v -5a 5 5, 0, 0, 0, -5 -5" transform="rotate(180,208,248)"/>
      <path d="M 213 103v 10h 5a 5 5, 0, 0, 0, 0 -10" transform="rotate(90,218,108)"/>
      <path d="M 213 133v 10h 5a 5 5, 0, 0, 0, 0 -10" transform="rotate(0,218,138)"/>
      <path d="M 213 173v 10h 10v -5a 5 5, 0, 0, 0, -5 -5" transform="rotate(0,218,178)"/>
      <path d="M 213 243v 10h 10v -5a 5 5, 0, 0, 0, -5 -5" transform="rotate(90,218,248)"/>
      <path d="M 223 113v 10h 10v -5a 5 5, 0, 0, 0, -5 -5" transform="rotate(-90,228,118)"/>
      <path d="M 223 123v 10h 10v -5a 5 5, 0, 0, 0, -5 -5" transform="rotate(180,228,128)"/>
      <path d="M 223 183v 10h 10v -5a 5 5, 0, 0, 0, -5 -5" transform="rotate(0,228,188)"/>
      <path d="M 233 83v 10h 5a 5 5, 0, 0, 0, 0 -10" transform="rotate(-90,238,88)"/>
      <path d="M 233 93v 10h 10v -5a 5 5, 0, 0, 0, -5 -5" transform="rotate(90,238,98)"/>
      <path d="M 233 123v 10h 10v -5a 5 5, 0, 0, 0, -5 -5" transform="rotate(90,238,128)"/>
      <path d="M 233 153v 10h 5a 5 5, 0, 0, 0, 0 -10" transform="rotate(180,238,158)"/>
      <path d="M 233 173v 10h 5a 5 5, 0, 0, 0, 0 -10" transform="rotate(180,238,178)"/>
      <path d="M 233 193v 10h 5a 5 5, 0, 0, 0, 0 -10" transform="rotate(0,238,198)"/>
      <path d="M 243 103v 10h 5a 5 5, 0, 0, 0, 0 -10" transform="rotate(-90,248,108)"/>
      <path d="M 243 113v 10h 10v -5a 5 5, 0, 0, 0, -5 -5" transform="rotate(90,248,118)"/>
      <path d="M 243 153v 10h 5a 5 5, 0, 0, 0, 0 -10" transform="rotate(0,248,158)"/>
      <path d="M 243 173v 10h 5a 5 5, 0, 0, 0, 0 -10" transform="rotate(0,248,178)"/>
      <path d="M 243 203v 10h 5a 5 5, 0, 0, 0, 0 -10" transform="rotate(-90,248,208)"/>
      <path d="M 243 243v 10h 5a 5 5, 0, 0, 0, 0 -10" transform="rotate(90,248,248)"/>
      <path clip-rule="evenodd" d="M 3 28v 20a 25 25, 0, 0, 0, 25 25h 20a 25 25, 0, 0, 0, 25 -25v -20a 25 25, 0, 0, 0, -25 -25h -20a 25 25, 0, 0, 0, -25 25M 28 13h 20a 15 15, 0, 0, 1, 15 15v 20a 15 15, 0, 0, 1, -15 15h -20a 15 15, 0, 0, 1, -15 -15v -20a 15 15, 0, 0, 1, 15 -15" transform="rotate(0,38,38)"/>
      <path d="M 23 23v 10h 10v -5a 5 5, 0, 0, 0, -5 -5" transform="rotate(-90,28,28)"/>
      <path d="M 23 43v 10h 10v -5a 5 5, 0, 0, 0, -5 -5" transform="rotate(180,28,48)"/>
      <path d="M 43 23v 10h 10v -5a 5 5, 0, 0, 0, -5 -5" transform="rotate(0,48,28)"/>
      <path d="M 43 43v 10h 10v -5a 5 5, 0, 0, 0, -5 -5" transform="rotate(90,48,48)"/>
      <path clip-rule="evenodd" d="M 183 28v 20a 25 25, 0, 0, 0, 25 25h 20a 25 25, 0, 0, 0, 25 -25v -20a 25 25, 0, 0, 0, -25 -25h -20a 25 25, 0, 0, 0, -25 25M 208 13h 20a 15 15, 0, 0, 1, 15 15v 20a 15 15, 0, 0, 1, -15 15h -20a 15 15, 0, 0, 1, -15 -15v -20a 15 15, 0, 0, 1, 15 -15" transform="rotate(90,218,38)"/>
      <path d="M 203 23v 10h 10v -5a 5 5, 0, 0, 0, -5 -5" transform="rotate(-90,208,28)"/>
      <path d="M 203 43v 10h 10v -5a 5 5, 0, 0, 0, -5 -5" transform="rotate(180,208,48)"/>
      <path d="M 223 23v 10h 10v -5a 5 5, 0, 0, 0, -5 -5" transform="rotate(0,228,28)"/>
      <path d="M 223 43v 10h 10v -5a 5 5, 0, 0, 0, -5 -5" transform="rotate(90,228,48)"/>
      <path clip-rule="evenodd" d="M 3 208v 20a 25 25, 0, 0, 0, 25 25h 20a 25 25, 0, 0, 0, 25 -25v -20a 25 25, 0, 0, 0, -25 -25h -20a 25 25, 0, 0, 0, -25 25M 28 193h 20a 15 15, 0, 0, 1, 15 15v 20a 15 15, 0, 0, 1, -15 15h -20a 15 15, 0, 0, 1, -15 -15v -20a 15 15, 0, 0, 1, 15 -15" transform="rotate(-90,38,218)"/>
      <path d="M 23 203v 10h 10v -5a 5 5, 0, 0, 0, -5 -5" transform="rotate(-90,28,208)"/>
      <path d="M 23 223v 10h 10v -5a 5 5, 0, 0, 0, -5 -5" transform="rotate(180,28,228)"/>
      <path d="M 43 203v 10h 10v -5a 5 5, 0, 0, 0, -5 -5" transform="rotate(0,48,208)"/>
      <path d="M 43 223v 10h 10v -5a 5 5, 0, 0, 0, -5 -5" transform="rotate(90,48,228)"/>
      <rect x="3" y="153" width="10" height="10" transform="rotate(0,8,158)"/>
      <rect x="13" y="93" width="10" height="10" transform="rotate(0,18,98)"/>
      <rect x="13" y="123" width="10" height="10" transform="rotate(0,18,128)"/>
      <rect x="13" y="143" width="10" height="10" transform="rotate(0,18,148)"/>
      <rect x="23" y="123" width="10" height="10" transform="rotate(0,28,128)"/>
      <rect x="23" y="143" width="10" height="10" transform="rotate(0,28,148)"/>
      <rect x="33" y="123" width="10" height="10" transform="rotate(0,38,128)"/>
      <rect x="33" y="133" width="10" height="10" transform="rotate(0,38,138)"/>
      <rect x="33" y="143" width="10" height="10" transform="rotate(0,38,148)"/>
      <rect x="33" y="163" width="10" height="10" transform="rotate(0,38,168)"/>
      <rect x="43" y="153" width="10" height="10" transform="rotate(0,48,158)"/>
      <rect x="53" y="83" width="10" height="10" transform="rotate(0,58,88)"/>
      <rect x="93" y="43" width="10" height="10" transform="rotate(0,98,48)"/>
      <rect x="93" y="83" width="10" height="10" transform="rotate(0,98,88)"/>
      <rect x="93" y="173" width="10" height="10" transform="rotate(0,98,178)"/>
      <rect x="93" y="203" width="10" height="10" transform="rotate(0,98,208)"/>
      <rect x="103" y="43" width="10" height="10" transform="rotate(0,108,48)"/>
      <rect x="103" y="73" width="10" height="10" transform="rotate(0,108,78)"/>
      <rect x="103" y="173" width="10" height="10" transform="rotate(0,108,178)"/>
      <rect x="103" y="203" width="10" height="10" transform="rotate(0,108,208)"/>
      <rect x="113" y="43" width="10" height="10" transform="rotate(0,118,48)"/>
      <rect x="113" y="173" width="10" height="10" transform="rotate(0,118,178)"/>
      <rect x="113" y="193" width="10" height="10" transform="rotate(0,118,198)"/>
      <rect x="113" y="223" width="10" height="10" transform="rotate(0,118,228)"/>
      <rect x="123" y="43" width="10" height="10" transform="rotate(0,128,48)"/>
      <rect x="123" y="183" width="10" height="10" transform="rotate(0,128,188)"/>
      <rect x="123" y="223" width="10" height="10" transform="rotate(0,128,228)"/>
      <rect x="123" y="233" width="10" height="10" transform="rotate(0,128,238)"/>
      <rect x="133" y="43" width="10" height="10" transform="rotate(0,138,48)"/>
      <rect x="163" y="93" width="10" height="10" transform="rotate(0,168,98)"/>
      <rect x="163" y="173" width="10" height="10" transform="rotate(0,168,178)"/>
      <rect x="163" y="183" width="10" height="10" transform="rotate(0,168,188)"/>
      <rect x="163" y="193" width="10" height="10" transform="rotate(0,168,198)"/>
      <rect x="163" y="203" width="10" height="10" transform="rotate(0,168,208)"/>
      <rect x="163" y="213" width="10" height="10" transform="rotate(0,168,218)"/>
      <rect x="173" y="93" width="10" height="10" transform="rotate(0,178,98)"/>
      <rect x="173" y="103" width="10" height="10" transform="rotate(0,178,108)"/>
      <rect x="173" y="163" width="10" height="10" transform="rotate(0,178,168)"/>
      <rect x="173" y="203" width="10" height="10" transform="rotate(0,178,208)"/>
      <rect x="173" y="213" width="10" height="10" transform="rotate(0,178,218)"/>
      <rect x="183" y="103" width="10" height="10" transform="rotate(0,188,108)"/>
      <rect x="183" y="163" width="10" height="10" transform="rotate(0,188,168)"/>
      <rect x="183" y="203" width="10" height="10" transform="rotate(0,188,208)"/>
      <rect x="183" y="213" width="10" height="10" transform="rotate(0,188,218)"/>
      <rect x="193" y="103" width="10" height="10" transform="rotate(0,198,108)"/>
      <rect x="193" y="113" width="10" height="10" transform="rotate(0,198,118)"/>
      <rect x="193" y="163" width="10" height="10" transform="rotate(0,198,168)"/>
      <rect x="193" y="203" width="10" height="10" transform="rotate(0,198,208)"/>
      <rect x="193" y="223" width="10" height="10" transform="rotate(0,198,228)"/>
      <rect x="203" y="93" width="10" height="10" transform="rotate(0,208,98)"/>
      <rect x="203" y="173" width="10" height="10" transform="rotate(0,208,178)"/>
      <rect x="203" y="183" width="10" height="10" transform="rotate(0,208,188)"/>
      <rect x="203" y="193" width="10" height="10" transform="rotate(0,208,198)"/>
      <rect x="203" y="203" width="10" height="10" transform="rotate(0,208,208)"/>
      <rect x="203" y="213" width="10" height="10" transform="rotate(0,208,218)"/>
      <rect x="203" y="223" width="10" height="10" transform="rotate(0,208,228)"/>
      <rect x="203" y="233" width="10" height="10" transform="rotate(0,208,238)"/>
      <rect x="213" y="93" width="10" height="10" transform="rotate(0,218,98)"/>
      <rect x="213" y="183" width="10" height="10" transform="rotate(0,218,188)"/>
      <rect x="213" y="193" width="10" height="10" transform="rotate(0,218,198)"/>
      <rect x="213" y="223" width="10" height="10" transform="rotate(0,218,228)"/>
      <rect x="213" y="233" width="10" height="10" transform="rotate(0,218,238)"/>
      <rect x="223" y="93" width="10" height="10" transform="rotate(0,228,98)"/>
      <rect x="223" y="193" width="10" height="10" transform="rotate(0,228,198)"/>
      <rect x="223" y="223" width="10" height="10" transform="rotate(0,228,228)"/>
      <rect x="223" y="233" width="10" height="10" transform="rotate(0,228,238)"/>
      <rect x="233" y="113" width="10" height="10" transform="rotate(0,238,118)"/>
      <rect x="233" y="223" width="10" height="10" transform="rotate(0,238,228)"/>
      <rect x="233" y="233" width="10" height="10" transform="rotate(0,238,238)"/>
      <rect x="243" y="213" width="10" height="10" transform="rotate(0,248,218)"/>
      <rect x="243" y="223" width="10" height="10" transform="rotate(0,248,228)"/>
      <rect x="243" y="233" width="10" height="10" transform="rotate(0,248,238)"/>
      <rect x="23" y="33" width="10" height="10" transform="rotate(0,28,38)"/>
      <rect x="33" y="23" width="10" height="10" transform="rotate(0,38,28)"/>
      <rect x="33" y="33" width="10" height="10" transform="rotate(0,38,38)"/>
      <rect x="33" y="43" width="10" height="10" transform="rotate(0,38,48)"/>
      <rect x="43" y="33" width="10" height="10" transform="rotate(0,48,38)"/>
      <rect x="203" y="33" width="10" height="10" transform="rotate(0,208,38)"/>
      <rect x="213" y="23" width="10" height="10" transform="rotate(0,218,28)"/>
      <rect x="213" y="33" width="10" height="10" transform="rotate(0,218,38)"/>
      <rect x="213" y="43" width="10" height="10" transform="rotate(0,218,48)"/>
      <rect x="223" y="33" width="10" height="10" transform="rotate(0,228,38)"/>
      <rect x="23" y="213" width="10" height="10" transform="rotate(0,28,218)"/>
      <rect x="33" y="203" width="10" height="10" transform="rotate(0,38,208)"/>
      <rect x="33" y="213" width="10" height="10" transform="rotate(0,38,218)"/>
      <rect x="33" y="223" width="10" height="10" transform="rotate(0,38,228)"/>
      <rect x="43" y="213" width="10" height="10" transform="rotate(0,48,218)"/>
      <circle cx="58" cy="118" r="5" transform="rotate(0,58,118)"/>
      <circle cx="58" cy="138" r="5" transform="rotate(0,58,138)"/>
      <circle cx="68" cy="108" r="5" transform="rotate(0,68,108)"/>
      <circle cx="68" cy="128" r="5" transform="rotate(0,68,128)"/>
      <circle cx="68" cy="148" r="5" transform="rotate(0,68,148)"/>
      <circle cx="88" cy="68" r="5" transform="rotate(0,88,68)"/>
      <circle cx="88" cy="128" r="5" transform="rotate(0,88,128)"/>
      <circle cx="88" cy="228" r="5" transform="rotate(0,88,228)"/>
      <circle cx="108" cy="28" r="5" transform="rotate(0,108,28)"/>
      <circle cx="138" cy="8" r="5" transform="rotate(0,138,8)"/>
      <circle cx="138" cy="208" r="5" transform="rotate(0,138,208)"/>
      <circle cx="148" cy="68" r="5" transform="rotate(0,148,68)"/>
      <circle cx="148" cy="198" r="5" transform="rotate(0,148,198)"/>
      <circle cx="148" cy="218" r="5" transform="rotate(0,148,218)"/>
      <circle cx="158" cy="58" r="5" transform="rotate(0,158,58)"/>
      <circle cx="158" cy="78" r="5" transform="rotate(0,158,78)"/>
      <circle cx="168" cy="68" r="5" transform="rotate(0,168,68)"/>
      <circle cx="168" cy="248" r="5" transform="rotate(0,168,248)"/>
      <circle cx="178" cy="238" r="5" transform="rotate(0,178,238)"/>
      <circle cx="188" cy="188" r="5" transform="rotate(0,188,188)"/>
      <circle cx="228" cy="168" r="5" transform="rotate(0,228,168)"/>
    </clipPath>
  </defs>
  <rect x="0" y="0" height="256" width="256" clip-path="url('#clip-path-background-color')" fill="#fff0" rx="25"/>
  <rect x="3" y="3" height="250" width="250" clip-path="url('#clip-path-dot-color')" fill="#000"/>
  <image/>
  <g>
    <svg xmlns="http://www.w3.org/2000/svg" width="54px" height="54px" fill="none" viewBox="0 0 139 170" x="101" y="101">
      <path fill="#000" d="M69.514.442C21.98.442.468 43.164.468 70.958c0 52.585 68.996 98.6 68.996 98.6s68.996-46.014 68.997-98.6c0-27.794-21.41-70.516-68.947-70.516Zm35.743 43.907c-5.431 3.932-8.843 5.08-13.054 5.893l.075 34.834 12.979.075c-.085 6.066-.972 9.903-1.939 11.56l-23.795-.148V50.838h-16.56V77.93c0 18.61-12.097 23.208-26.629 19.603-1.266-1.995-2.267-9.186-1.938-13.725 13.582 5.246 16.235.707 16.073-10.309l-.036-20.871c-6.044-.328-11.606 4.192-16.782 12.606l.596-15.887c6.089-6.872 14.748-10.48 24.466-10.667l27.971-.148c6.747-.057 10.797-3.49 13.576-5.818 3.667 2.71 5.23 6.649 4.997 11.636Z"/>
    </svg>
  </g>
</svg>