<?xml version="1.0" encoding="UTF-8" standalone="yes"?>
<svg xmlns="http://www.w3.org/2000/svg" width="256" height="256">
  <defs>
    <clipPath id="clip-path-dot-color">
      <path d="M 15 55v 5h 2.5a 2.5 2.5, 0, 0, 0, 0 -5" transform="rotate(-90,17.5,57.5)"/>
      <path d="M 15 65v 5h 2.5a 2.5 2.5, 0, 0, 0, 0 -5" transform="rotate(90,17.5,67.5)"/>
      <path d="M 15 80v 5h 2.5a 2.5 2.5, 0, 0, 0, 0 -5" transform="rotate(180,17.5,82.5)"/>
      <path d="M 15 90v 5h 2.5a 2.5 2.5, 0, 0, 0, 0 -5" transform="rotate(-90,17.5,92.5)"/>
      <path d="M 15 95v 5h 2.5a 2.5 2.5, 0, 0, 0, 0 -5" transform="rotate(90,17.5,97.5)"/>
      <path d="M 15 115v 5h 2.5a 2.5 2.5, 0, 0, 0, 0 -5" transform="rotate(180,17.5,117.5)"/>
      <path d="M 15 135v 5h 2.5a 2.5 2.5, 0, 0, 0, 0 -5" transform="rotate(-90,17.5,137.5)"/>
      <path d="M 15 145v 5h 5v -2.5a 2.5 2.5, 0, 0, 0, -2.5 -2.5" transform="rotate(180,17.5,147.5)"/>
      <path d="M 15 155v 5h 5v -2.5a 2.5 2.5, 0, 0, 0, -2.5 -2.5" transform="rotate(-90,17.5,157.5)"/>
      <path d="M 15 170v 5h 5v -2.5a 2.5 2.5, 0, 0, 0, -2.5 -2.5" transform="rotate(180,17.5,172.5)"/>
      <path d="M 20 70v 5h 2.5a 2.5 2.5, 0, 0, 0, 0 -5" transform="rotate(180,22.5,72.5)"/>
      <path d="M 20 80v 5h 2.5a 2.5 2.5, 0, 0, 0, 0 -5" transform="rotate(0,22.5,82.5)"/>
      <path d="M 20 100v 5h 5v -2.5a 2.5 2.5, 0, 0, 0, -2.5 -2.5" transform="rotate(-90,22.5,102.5)"/>
      <path d="M 20 105v 5h 2.5a 2.5 2.5, 0, 0, 0, 0 -5" transform="rotate(90,22.5,107.5)"/>
      <path d="M 20 155v 5h 5v -2.5a 2.5 2.5, 0, 0, 0, -2.5 -2.5" transform="rotate(90,22.5,157.5)"/>
      <path d="M 20 175v 5h 2.5a 2.5 2.5, 0, 0, 0, 0 -5" transform="rotate(90,22.5,177.5)"/>
      <path d="M 20 190v 5h 2.5a 2.5 2.5, 0, 0, 0, 0 -5" transform="rotate(180,22.5,192.5)"/>
      <path d="M 25 55v 5h 2.5a 2.5 2.5, 0, 0, 0, 0 -5" transform="rotate(180,27.5,57.5)"/>
      <path d="M 25 70v 5h 5v -2.5a 2.5 2.5, 0, 0, 0, -2.5 -2.5" transform="rotate(0,27.5,72.5)"/>
      <path d="M 25 75v 5h 5v -2.5a 2.5 2.5, 0, 0, 0, -2.5 -2.5" transform="rotate(180,27.5,77.5)"/>
      <path d="M 25 85v 5h 2.5a 2.5 2.5, 0, 0, 0, 0 -5" transform="rotate(-90,27.5,87.5)"/>
      <path d="M 25 90v 5h 5v -2.5a 2.5 2.5, 0, 0, 0, -2.5 -2.5" transform="rotate(180,27.5,92.5)"/>
      <path d="M 25 125v 5h 2.5a 2.5 2.5, 0, 0, 0, 0 -5" transform="rotate(90,27.5,127.5)"/>
      <path d="M 25 140v 5h 5v -2.5a 2.5 2.5, 0, 0, 0, -2.5 -2.5" transform="rotate(-90,27.5,142.5)"/>
      <path d="M 25 165v 5h 2.5a 2.5 2.5, 0, 0, 0, 0 -5" transform="rotate(0,27.5,167.5)"/>
      <path d="M 30 55v 5h 5v -2.5a 2.5 2.5, 0, 0, 0, -2.5 -2.5" transform="rotate(0,32.5,57.5)"/>
      <path d="M 30 60v 5h 5v -2.5a 2.5 2.5, 0, 0, 0, -2.5 -2.5" transform="rotate(180,32.5,62.5)"/>
      <path d="M 30 80v 5h 5v -2.5a 2.5 2.5, 0, 0, 0, -2.5 -2.5" transform="rotate(180,32.5,82.5)"/>
      <path d="M 30 105v 5h 5v -2.5a 2.5 2.5, 0, 0, 0, -2.5 -2.5" transform="rotate(180,32.5,107.5)"/>
      <path d="M 30 130v 5h 5v -2.5a 2.5 2.5, 0, 0, 0, -2.5 -2.5" transform="rotate(-90,32.5,132.5)"/>
      <path d="M 30 145v 5h 5v -2.5a 2.5 2.5, 0, 0, 0, -2.5 -2.5" transform="rotate(90,32.5,147.5)"/>
      <path d="M 30 195v 5h 5v -2.5a 2.5 2.5, 0, 0, 0, -2.5 -2.5" transform="rotate(180,32.5,197.5)"/>
      <path d="M 35 65v 5h 5v -2.5a 2.5 2.5, 0, 0, 0, -2.5 -2.5" transform="rotate(180,37.5,67.5)"/>
      <path d="M 35 75v 5h 5v -2.5a 2.5 2.5, 0, 0, 0, -2.5 -2.5" transform="rotate(0,37.5,77.5)"/>
      <path d="M 35 150v 5h 2.5a 2.5 2.5, 0, 0, 0, 0 -5" transform="rotate(-90,37.5,152.5)"/>
      <path d="M 35 170v 5h 2.5a 2.5 2.5, 0, 0, 0, 0 -5" transform="rotate(90,37.5,172.5)"/>
      <path d="M 35 180v 5h 5v -2.5a 2.5 2.5, 0, 0, 0, -2.5 -2.5" transform="rotate(-90,37.5,182.5)"/>
      <path d="M 35 195v 5h 5v -2.5a 2.5 2.5, 0, 0, 0, -2.5 -2.5" transform="rotate(90,37.5,197.5)"/>
      <path d="M 40 55v 5h 5v -2.5a 2.5 2.5, 0, 0, 0, -2.5 -2.5" transform="rotate(-90,42.5,57.5)"/>
      <path d="M 40 70v 5h 2.5a 2.5 2.5, 0, 0, 0, 0 -5" transform="rotate(90,42.5,72.5)"/>
      <path d="M 40 90v 5h 5v -2.5a 2.5 2.5, 0, 0, 0, -2.5 -2.5" transform="rotate(90,42.5,92.5)"/>
      <path d="M 40 100v 5h 2.5a 2.5 2.5, 0, 0, 0, 0 -5" transform="rotate(-90,42.5,102.5)"/>
      <path d="M 40 145v 5h 5v -2.5a 2.5 2.5, 0, 0, 0, -2.5 -2.5" transform="rotate(180,42.5,147.5)"/>
      <path d="M 40 160v 5h 5v -2.5a 2.5 2.5, 0, 0, 0, -2.5 -2.5" transform="rotate(0,42.5,162.5)"/>
      <path d="M 40 180v 5h 2.5a 2.5 2.5, 0, 0, 0, 0 -5" transform="rotate(0,42.5,182.5)"/>
      <path d="M 45 65v 5h 2.5a 2.5 2.5, 0, 0, 0, 0 -5" transform="rotate(0,47.5,67.5)"/>
      <path d="M 45 105v 5h 2.5a 2.5 2.5, 0, 0, 0, 0 -5" transform="rotate(0,47.5,107.5)"/>
      <path d="M 45 145v 5h 2.5a 2.5 2.5, 0, 0, 0, 0 -5" transform="rotate(0,47.5,147.5)"/>
      <path d="M 45 175v 5h 2.5a 2.5 2.5, 0, 0, 0, 0 -5" transform="rotate(180,47.5,177.5)"/>
      <path d="M 45 185v 5h 2.5a 2.5 2.5, 0, 0, 0, 0 -5" transform="rotate(180,47.5,187.5)"/>
      <path d="M 45 195v 5h 2.5a 2.5 2.5, 0, 0, 0, 0 -5" transform="rotate(180,47.5,197.5)"/>
      <path d="M 50 60v 5h 5v -2.5a 2.5 2.5, 0, 0, 0, -2.5 -2.5" transform="rotate(180,52.5,62.5)"/>
      <path d="M 50 85v 5h 2.5a 2.5 2.5, 0, 0, 0, 0 -5" transform="rotate(0,52.5,87.5)"/>
      <path d="M 50 100v 5h 2.5a 2.5 2.5, 0, 0, 0, 0 -5" transform="rotate(180,52.5,102.5)"/>
      <path d="M 50 110v 5h 5v -2.5a 2.5 2.5, 0, 0, 0, -2.5 -2.5" transform="rotate(-90,52.5,112.5)"/>
      <path d="M 50 160v 5h 5v -2.5a 2.5 2.5, 0, 0, 0, -2.5 -2.5" transform="rotate(-90,52.5,162.5)"/>
      <path d="M 50 175v 5h 5v -2.5a 2.5 2.5, 0, 0, 0, -2.5 -2.5" transform="rotate(90,52.5,177.5)"/>
      <path d="M 50 195v 5h 5v -2.5a 2.5 2.5, 0, 0, 0, -2.5 -2.5" transform="rotate(90,52.5,197.5)"/>
      <path d="M 55 30v 5h 2.5a 2.5 2.5, 0, 0, 0, 0 -5" transform="rotate(180,57.5,32.5)"/>
      <path d="M 55 40v 5h 2.5a 2.5 2.5, 0, 0, 0, 0 -5" transform="rotate(-90,57.5,42.5)"/>
      <path d="M 55 65v 5h 5v -2.5a 2.5 2.5, 0, 0, 0, -2.5 -2.5" transform="rotate(180,57.5,67.5)"/>
      <path d="M 55 75v 5h 2.5a 2.5 2.5, 0, 0, 0, 0 -5" transform="rotate(180,57.5,77.5)"/>
      <path d="M 55 95v 5h 5v -2.5a 2.5 2.5, 0, 0, 0, -2.5 -2.5" transform="rotate(-90,57.5,97.5)"/>
      <path d="M 55 140v 5h 2.5a 2.5 2.5, 0, 0, 0, 0 -5" transform="rotate(90,57.5,142.5)"/>
      <path d="M 55 150v 5h 5v -2.5a 2.5 2.5, 0, 0, 0, -2.5 -2.5" transform="rotate(-90,57.5,152.5)"/>
      <path d="M 55 160v 5h 5v -2.5a 2.5 2.5, 0, 0, 0, -2.5 -2.5" transform="rotate(90,57.5,162.5)"/>
      <path d="M 55 170v 5h 2.5a 2.5 2.5, 0, 0, 0, 0 -5" transform="rotate(0,57.5,172.5)"/>
      <path d="M 55 180v 5h 2.5a 2.5 2.5, 0, 0, 0, 0 -5" transform="rotate(-90,57.5,182.5)"/>
      <path d="M 55 190v 5h 5v -2.5a 2.5 2.5, 0, 0, 0, -2.5 -2.5" transform="rotate(90,57.5,192.5)"/>
      <path d="M 55 200v 5h 2.5a 2.5 2.5, 0, 0, 0, 0 -5" transform="rotate(-90,57.5,202.5)"/>
      <path d="M 55 210v 5h 2.5a 2.5 2.5, 0, 0, 0, 0 -5" transform="rotate(90,57.5,212.5)"/>
      <path d="M 55 220v 5h 2.5a 2.5 2.5, 0, 0, 0, 0 -5" transform="rotate(-90,57.5,222.5)"/>
      <path d="M 55 225v 5h 2.5a 2.5 2.5, 0, 0, 0, 0 -5" transform="rotate(90,57.5,227.5)"/>
      <path d="M 55 235v 5h 2.5a 2.5 2.5, 0, 0, 0, 0 -5" transform="rotate(180,57.5,237.5)"/>
      <path d="M 60 75v 5h 5v -2.5a 2.5 2.5, 0, 0, 0, -2.5 -2.5" transform="rotate(90,62.5,77.5)"/>
      <path d="M 60 150v 5h 5v -2.5a 2.5 2.5, 0, 0, 0, -2.5 -2.5" transform="rotate(0,62.5,152.5)"/>
      <path d="M 60 230v 5h 2.5a 2.5 2.5, 0, 0, 0, 0 -5" transform="rotate(-90,62.5,232.5)"/>
      <path d="M 65 15v 5h 2.5a 2.5 2.5, 0, 0, 0, 0 -5" transform="rotate(180,67.5,17.5)"/>
      <path d="M 65 50v 5h 5v -2.5a 2.5 2.5, 0, 0, 0, -2.5 -2.5" transform="rotate(90,67.5,52.5)"/>
      <path d="M 65 60v 5h 5v -2.5a 2.5 2.5, 0, 0, 0, -2.5 -2.5" transform="rotate(-90,67.5,62.5)"/>
      <path d="M 65 65v 5h 5v -2.5a 2.5 2.5, 0, 0, 0, -2.5 -2.5" transform="rotate(90,67.5,67.5)"/>
      <path d="M 65 80v 5h 2.5a 2.5 2.5, 0, 0, 0, 0 -5" transform="rotate(-90,67.5,82.5)"/>
      <path d="M 65 85v 5h 2.5a 2.5 2.5, 0, 0, 0, 0 -5" transform="rotate(90,67.5,87.5)"/>
      <path d="M 65 95v 5h 2.5a 2.5 2.5, 0, 0, 0, 0 -5" transform="rotate(0,67.5,97.5)"/>
      <path d="M 65 105v 5h 2.5a 2.5 2.5, 0, 0, 0, 0 -5" transform="rotate(0,67.5,107.5)"/>
      <path d="M 65 125v 5h 5v -2.5a 2.5 2.5, 0, 0, 0, -2.5 -2.5" transform="rotate(0,67.5,127.5)"/>
      <path d="M 65 130v 5h 5v -2.5a 2.5 2.5, 0, 0, 0, -2.5 -2.5" transform="rotate(180,67.5,132.5)"/>
      <path d="M 65 180v 5h 5v -2.5a 2.5 2.5, 0, 0, 0, -2.5 -2.5" transform="rotate(-90,67.5,182.5)"/>
      <path d="M 65 185v 5h 5v -2.5a 2.5 2.5, 0, 0, 0, -2.5 -2.5" transform="rotate(180,67.5,187.5)"/>
      <path d="M 65 210v 5h 2.5a 2.5 2.5, 0, 0, 0, 0 -5" transform="rotate(180,67.5,212.5)"/>
      <path d="M 65 220v 5h 5v -2.5a 2.5 2.5, 0, 0, 0, -2.5 -2.5" transform="rotate(-90,67.5,222.5)"/>
      <path d="M 65 225v 5h 2.5a 2.5 2.5, 0, 0, 0, 0 -5" transform="rotate(90,67.5,227.5)"/>
      <path d="M 70 60v 5h 2.5a 2.5 2.5, 0, 0, 0, 0 -5" transform="rotate(0,72.5,62.5)"/>
      <path d="M 70 70v 5h 5v -2.5a 2.5 2.5, 0, 0, 0, -2.5 -2.5" transform="rotate(-90,72.5,72.5)"/>
      <path d="M 70 75v 5h 5v -2.5a 2.5 2.5, 0, 0, 0, -2.5 -2.5" transform="rotate(180,72.5,77.5)"/>
      <path d="M 70 115v 5h 2.5a 2.5 2.5, 0, 0, 0, 0 -5" transform="rotate(0,72.5,117.5)"/>
      <path d="M 70 130v 5h 5v -2.5a 2.5 2.5, 0, 0, 0, -2.5 -2.5" transform="rotate(0,72.5,132.5)"/>
      <path d="M 70 140v 5h 2.5a 2.5 2.5, 0, 0, 0, 0 -5" transform="rotate(90,72.5,142.5)"/>
      <path d="M 70 190v 5h 5v -2.5a 2.5 2.5, 0, 0, 0, -2.5 -2.5" transform="rotate(180,72.5,192.5)"/>
      <path d="M 70 235v 5h 2.5a 2.5 2.5, 0, 0, 0, 0 -5" transform="rotate(0,72.5,237.5)"/>
      <path d="M 75 45v 5h 2.5a 2.5 2.5, 0, 0, 0, 0 -5" transform="rotate(-90,77.5,47.5)"/>
      <path d="M 75 55v 5h 5v -2.5a 2.5 2.5, 0, 0, 0, -2.5 -2.5" transform="rotate(180,77.5,57.5)"/>
      <path d="M 75 65v 5h 5v -2.5a 2.5 2.5, 0, 0, 0, -2.5 -2.5" transform="rotate(-90,77.5,67.5)"/>
      <path d="M 75 75v 5h 5v -2.5a 2.5 2.5, 0, 0, 0, -2.5 -2.5" transform="rotate(90,77.5,77.5)"/>
      <path d="M 75 105v 5h 2.5a 2.5 2.5, 0, 0, 0, 0 -5" transform="rotate(-90,77.5,107.5)"/>
      <path d="M 75 110v 5h 2.5a 2.5 2.5, 0, 0, 0, 0 -5" transform="rotate(90,77.5,112.5)"/>
      <path d="M 75 145v 5h 2.5a 2.5 2.5, 0, 0, 0, 0 -5" transform="rotate(-90,77.5,147.5)"/>
      <path d="M 75 160v 5h 2.5a 2.5 2.5, 0, 0, 0, 0 -5" transform="rotate(90,77.5,162.5)"/>
      <path d="M 75 170v 5h 5v -2.5a 2.5 2.5, 0, 0, 0, -2.5 -2.5" transform="rotate(-90,77.5,172.5)"/>
      <path d="M 75 180v 5h 5v -2.5a 2.5 2.5, 0, 0, 0, -2.5 -2.5" transform="rotate(90,77.5,182.5)"/>
      <path d="M 75 190v 5h 2.5a 2.5 2.5, 0, 0, 0, 0 -5" transform="rotate(0,77.5,192.5)"/>
      <path d="M 75 210v 5h 5v -2.5a 2.5 2.5, 0, 0, 0, -2.5 -2.5" transform="rotate(0,77.5,212.5)"/>
      <path d="M 80 15v 5h 2.5a 2.5 2.5, 0, 0, 0, 0 -5" transform="rotate(0,82.5,17.5)"/>
      <path d="M 80 40v 5h 5v -2.5a 2.5 2.5, 0, 0, 0, -2.5 -2.5" transform="rotate(180,82.5,42.5)"/>
      <path d="M 80 55v 5h 5v -2.5a 2.5 2.5, 0, 0, 0, -2.5 -2.5" transform="rotate(90,82.5,57.5)"/>
      <path d="M 80 90v 5h 2.5a 2.5 2.5, 0, 0, 0, 0 -5" transform="rotate(-90,82.5,92.5)"/>
      <path d="M 80 95v 5h 2.5a 2.5 2.5, 0, 0, 0, 0 -5" transform="rotate(90,82.5,97.5)"/>
      <path d="M 80 130v 5h 2.5a 2.5 2.5, 0, 0, 0, 0 -5" transform="rotate(-90,82.5,132.5)"/>
      <path d="M 80 140v 5h 2.5a 2.5 2.5, 0, 0, 0, 0 -5" transform="rotate(90,82.5,142.5)"/>
      <path d="M 80 155v 5h 2.5a 2.5 2.5, 0, 0, 0, 0 -5" transform="rotate(0,82.5,157.5)"/>
      <path d="M 80 170v 5h 2.5a 2.5 2.5, 0, 0, 0, 0 -5" transform="rotate(0,82.5,172.5)"/>
      <path d="M 80 220v 5h 5v -2.5a 2.5 2.5, 0, 0, 0, -2.5 -2.5" transform="rotate(0,82.5,222.5)"/>
      <path d="M 80 225v 5h 2.5a 2.5 2.5, 0, 0, 0, 0 -5" transform="rotate(90,82.5,227.5)"/>
      <path d="M 85 25v 5h 5v -2.5a 2.5 2.5, 0, 0, 0, -2.5 -2.5" transform="rotate(-90,87.5,27.5)"/>
      <path d="M 85 60v 5h 5v -2.5a 2.5 2.5, 0, 0, 0, -2.5 -2.5" transform="rotate(-90,87.5,62.5)"/>
      <path d="M 85 80v 5h 5v -2.5a 2.5 2.5, 0, 0, 0, -2.5 -2.5" transform="rotate(180,87.5,82.5)"/>
      <path d="M 85 100v 5h 2.5a 2.5 2.5, 0, 0, 0, 0 -5" transform="rotate(-90,87.5,102.5)"/>
      <path d="M 85 105v 5h 2.5a 2.5 2.5, 0, 0, 0, 0 -5" transform="rotate(90,87.5,107.5)"/>
      <path d="M 85 135v 5h 2.5a 2.5 2.5, 0, 0, 0, 0 -5" transform="rotate(0,87.5,137.5)"/>
      <path d="M 85 190v 5h 2.5a 2.5 2.5, 0, 0, 0, 0 -5" transform="rotate(-90,87.5,192.5)"/>
      <path d="M 85 195v 5h 5v -2.5a 2.5 2.5, 0, 0, 0, -2.5 -2.5" transform="rotate(180,87.5,197.5)"/>
      <path d="M 85 205v 5h 2.5a 2.5 2.5, 0, 0, 0, 0 -5" transform="rotate(-90,87.5,207.5)"/>
      <path d="M 85 215v 5h 5v -2.5a 2.5 2.5, 0, 0, 0, -2.5 -2.5" transform="rotate(180,87.5,217.5)"/>
      <path d="M 85 230v 5h 2.5a 2.5 2.5, 0, 0, 0, 0 -5" transform="rotate(180,87.5,232.5)"/>
      <path d="M 90 15v 5h 2.5a 2.5 2.5, 0, 0, 0, 0 -5" transform="rotate(-90,92.5,17.5)"/>
      <path d="M 90 60v 5h 2.5a 2.5 2.5, 0, 0, 0, 0 -5" transform="rotate(0,92.5,62.5)"/>
      <path d="M 90 80v 5h 5v -2.5a 2.5 2.5, 0, 0, 0, -2.5 -2.5" transform="rotate(0,92.5,82.5)"/>
      <path d="M 90 85v 5h 5v -2.5a 2.5 2.5, 0, 0, 0, -2.5 -2.5" transform="rotate(180,92.5,87.5)"/>
      <path d="M 90 170v 5h 2.5a 2.5 2.5, 0, 0, 0, 0 -5" transform="rotate(-90,92.5,172.5)"/>
      <path d="M 90 185v 5h 2.5a 2.5 2.5, 0, 0, 0, 0 -5" transform="rotate(90,92.5,187.5)"/>
      <path d="M 90 195v 5h 5v -2.5a 2.5 2.5, 0, 0, 0, -2.5 -2.5" transform="rotate(0,92.5,197.5)"/>
      <path d="M 90 200v 5h 2.5a 2.5 2.5, 0, 0, 0, 0 -5" transform="rotate(90,92.5,202.5)"/>
      <path d="M 90 215v 5h 2.5a 2.5 2.5, 0, 0, 0, 0 -5" transform="rotate(0,92.5,217.5)"/>
      <path d="M 90 230v 5h 5v -2.5a 2.5 2.5, 0, 0, 0, -2.5 -2.5" transform="rotate(0,92.5,232.5)"/>
      <path d="M 90 235v 5h 5v -2.5a 2.5 2.5, 0, 0, 0, -2.5 -2.5" transform="rotate(180,92.5,237.5)"/>
      <path d="M 95 25v 5h 2.5a 2.5 2.5, 0, 0, 0, 0 -5" transform="rotate(0,97.5,27.5)"/>
      <path d="M 95 35v 5h 5v -2.5a 2.5 2.5, 0, 0, 0, -2.5 -2.5" transform="rotate(0,97.5,37.5)"/>
      <path d="M 95 55v 5h 2.5a 2.5 2.5, 0, 0, 0, 0 -5" transform="rotate(90,97.5,57.5)"/>
      <path d="M 95 180v 5h 5v -2.5a 2.5 2.5, 0, 0, 0, -2.5 -2.5" transform="rotate(90,97.5,182.5)"/>
      <path d="M 95 190v 5h 2.5a 2.5 2.5, 0, 0, 0, 0 -5" transform="rotate(180,97.5,192.5)"/>
      <path d="M 95 205v 5h 5v -2.5a 2.5 2.5, 0, 0, 0, -2.5 -2.5" transform="rotate(-90,97.5,207.5)"/>
      <path d="M 95 210v 5h 5v -2.5a 2.5 2.5, 0, 0, 0, -2.5 -2.5" transform="rotate(180,97.5,212.5)"/>
      <path d="M 95 235v 5h 2.5a 2.5 2.5, 0, 0, 0, 0 -5" transform="rotate(0,97.5,237.5)"/>
      <path d="M 100 15v 5h 2.5a 2.5 2.5, 0, 0, 0, 0 -5" transform="rotate(180,102.5,17.5)"/>
      <path d="M 100 50v 5h 2.5a 2.5 2.5, 0, 0, 0, 0 -5" transform="rotate(0,102.5,52.5)"/>
      <path d="M 100 85v 5h 2.5a 2.5 2.5, 0, 0, 0, 0 -5" transform="rotate(0,102.5,87.5)"/>
      <path d="M 100 170v 5h 2.5a 2.5 2.5, 0, 0, 0, 0 -5" transform="rotate(-90,102.5,172.5)"/>
      <path d="M 100 175v 5h 5v -2.5a 2.5 2.5, 0, 0, 0, -2.5 -2.5" transform="rotate(90,102.5,177.5)"/>
      <path d="M 100 190v 5h 2.5a 2.5 2.5, 0, 0, 0, 0 -5" transform="rotate(0,102.5,192.5)"/>
      <path d="M 100 205v 5h 5v -2.5a 2.5 2.5, 0, 0, 0, -2.5 -2.5" transform="rotate(0,102.5,207.5)"/>
      <path d="M 100 220v 5h 2.5a 2.5 2.5, 0, 0, 0, 0 -5" transform="rotate(90,102.5,222.5)"/>
      <path d="M 105 20v 5h 5v -2.5a 2.5 2.5, 0, 0, 0, -2.5 -2.5" transform="rotate(180,107.5,22.5)"/>
      <path d="M 105 35v 5h 5v -2.5a 2.5 2.5, 0, 0, 0, -2.5 -2.5" transform="rotate(-90,107.5,37.5)"/>
      <path d="M 105 45v 5h 2.5a 2.5 2.5, 0, 0, 0, 0 -5" transform="rotate(90,107.5,47.5)"/>
      <path d="M 105 180v 5h 2.5a 2.5 2.5, 0, 0, 0, 0 -5" transform="rotate(180,107.5,182.5)"/>
      <path d="M 105 195v 5h 2.5a 2.5 2.5, 0, 0, 0, 0 -5" transform="rotate(-90,107.5,197.5)"/>
      <path d="M 105 200v 5h 2.5a 2.5 2.5, 0, 0, 0, 0 -5" transform="rotate(90,107.5,202.5)"/>
      <path d="M 105 225v 5h 2.5a 2.5 2.5, 0, 0, 0, 0 -5" transform="rotate(-90,107.5,227.5)"/>
      <path d="M 105 235v 5h 2.5a 2.5 2.5, 0, 0, 0, 0 -5" transform="rotate(90,107.5,237.5)"/>
      <path d="M 110 65v 5h 2.5a 2.5 2.5, 0, 0, 0, 0 -5" transform="rotate(180,112.5,67.5)"/>
      <path d="M 110 175v 5h 2.5a 2.5 2.5, 0, 0, 0, 0 -5" transform="rotate(-90,112.5,177.5)"/>
      <path d="M 110 180v 5h 5v -2.5a 2.5 2.5, 0, 0, 0, -2.5 -2.5" transform="rotate(90,112.5,182.5)"/>
      <path d="M 110 205v 5h 2.5a 2.5 2.5, 0, 0, 0, 0 -5" transform="rotate(180,112.5,207.5)"/>
      <path d="M 115 25v 5h 5v -2.5a 2.5 2.5, 0, 0, 0, -2.5 -2.5" transform="rotate(90,117.5,27.5)"/>
      <path d="M 115 65v 5h 5v -2.5a 2.5 2.5, 0, 0, 0, -2.5 -2.5" transform="rotate(90,117.5,67.5)"/>
      <path d="M 115 165v 5h 2.5a 2.5 2.5, 0, 0, 0, 0 -5" transform="rotate(-90,117.5,167.5)"/>
      <path d="M 115 170v 5h 2.5a 2.5 2.5, 0, 0, 0, 0 -5" transform="rotate(90,117.5,172.5)"/>
      <path d="M 115 190v 5h 2.5a 2.5 2.5, 0, 0, 0, 0 -5" transform="rotate(-90,117.5,192.5)"/>
      <path d="M 115 220v 5h 5v -2.5a 2.5 2.5, 0, 0, 0, -2.5 -2.5" transform="rotate(180,117.5,222.5)"/>
      <path d="M 120 15v 5h 5v -2.5a 2.5 2.5, 0, 0, 0, -2.5 -2.5" transform="rotate(0,122.5,17.5)"/>
      <path d="M 120 60v 5h 5v -2.5a 2.5 2.5, 0, 0, 0, -2.5 -2.5" transform="rotate(90,122.5,62.5)"/>
      <path d="M 120 70v 5h 2.5a 2.5 2.5, 0, 0, 0, 0 -5" transform="rotate(180,122.5,72.5)"/>
      <path d="M 120 175v 5h 2.5a 2.5 2.5, 0, 0, 0, 0 -5" transform="rotate(180,122.5,177.5)"/>
      <path d="M 120 230v 5h 2.5a 2.5 2.5, 0, 0, 0, 0 -5" transform="rotate(-90,122.5,232.5)"/>
      <path d="M 120 235v 5h 5v -2.5a 2.5 2.5, 0, 0, 0, -2.5 -2.5" transform="rotate(180,122.5,237.5)"/>
      <path d="M 125 20v 5h 2.5a 2.5 2.5, 0, 0, 0, 0 -5" transform="rotate(0,127.5,22.5)"/>
      <path d="M 125 75v 5h 2.5a 2.5 2.5, 0, 0, 0, 0 -5" transform="rotate(90,127.5,77.5)"/>
      <path d="M 125 175v 5h 5v -2.5a 2.5 2.5, 0, 0, 0, -2.5 -2.5" transform="rotate(0,127.5,177.5)"/>
      <path d="M 125 225v 5h 2.5a 2.5 2.5, 0, 0, 0, 0 -5" transform="rotate(90,127.5,227.5)"/>
      <path d="M 125 235v 5h 2.5a 2.5 2.5, 0, 0, 0, 0 -5" transform="rotate(0,127.5,237.5)"/>
      <path d="M 130 25v 5h 2.5a 2.5 2.5, 0, 0, 0, 0 -5" transform="rotate(-90,132.5,27.5)"/>
      <path d="M 130 80v 5h 5v -2.5a 2.5 2.5, 0, 0, 0, -2.5 -2.5" transform="rotate(-90,132.5,82.5)"/>
      <path d="M 130 85v 5h 5v -2.5a 2.5 2.5, 0, 0, 0, -2.5 -2.5" transform="rotate(180,132.5,87.5)"/>
      <path d="M 130 170v 5h 2.5a 2.5 2.5, 0, 0, 0, 0 -5" transform="rotate(180,132.5,172.5)"/>
      <path d="M 135 35v 5h 5v -2.5a 2.5 2.5, 0, 0, 0, -2.5 -2.5" transform="rotate(0,137.5,37.5)"/>
      <path d="M 135 70v 5h 2.5a 2.5 2.5, 0, 0, 0, 0 -5" transform="rotate(0,137.5,72.5)"/>
      <path d="M 135 80v 5h 5v -2.5a 2.5 2.5, 0, 0, 0, -2.5 -2.5" transform="rotate(0,137.5,82.5)"/>
      <path d="M 135 165v 5h 2.5a 2.5 2.5, 0, 0, 0, 0 -5" transform="rotate(-90,137.5,167.5)"/>
      <path d="M 135 175v 5h 2.5a 2.5 2.5, 0, 0, 0, 0 -5" transform="rotate(90,137.5,177.5)"/>
      <path d="M 135 195v 5h 5v -2.5a 2.5 2.5, 0, 0, 0, -2.5 -2.5" transform="rotate(0,137.5,197.5)"/>
      <path d="M 135 220v 5h 5v -2.5a 2.5 2.5, 0, 0, 0, -2.5 -2.5" transform="rotate(90,137.5,222.5)"/>
      <path d="M 135 235v 5h 2.5a 2.5 2.5, 0, 0, 0, 0 -5" transform="rotate(180,137.5,237.5)"/>
      <path d="M 140 50v 5h 5v -2.5a 2.5 2.5, 0, 0, 0, -2.5 -2.5" transform="rotate(0,142.5,52.5)"/>
      <path d="M 140 65v 5h 2.5a 2.5 2.5, 0, 0, 0, 0 -5" transform="rotate(90,142.5,67.5)"/>
      <path d="M 140 85v 5h 2.5a 2.5 2.5, 0, 0, 0, 0 -5" transform="rotate(0,142.5,87.5)"/>
      <path d="M 140 170v 5h 2.5a 2.5 2.5, 0, 0, 0, 0 -5" transform="rotate(0,142.5,172.5)"/>
      <path d="M 140 235v 5h 2.5a 2.5 2.5, 0, 0, 0, 0 -5" transform="rotate(0,142.5,237.5)"/>
      <path d="M 145 15v 5h 5v -2.5a 2.5 2.5, 0, 0, 0, -2.5 -2.5" transform="rotate(-90,147.5,17.5)"/>
      <path d="M 145 25v 5h 2.5a 2.5 2.5, 0, 0, 0, 0 -5" transform="rotate(90,147.5,27.5)"/>
      <path d="M 145 35v 5h 2.5a 2.5 2.5, 0, 0, 0, 0 -5" transform="rotate(-90,147.5,37.5)"/>
      <path d="M 145 45v 5h 2.5a 2.5 2.5, 0, 0, 0, 0 -5" transform="rotate(90,147.5,47.5)"/>
      <path d="M 145 195v 5h 5v -2.5a 2.5 2.5, 0, 0, 0, -2.5 -2.5" transform="rotate(-90,147.5,197.5)"/>
      <path d="M 145 200v 5h 5v -2.5a 2.5 2.5, 0, 0, 0, -2.5 -2.5" transform="rotate(90,147.5,202.5)"/>
      <path d="M 145 215v 5h 2.5a 2.5 2.5, 0, 0, 0, 0 -5" transform="rotate(0,147.5,217.5)"/>
      <path d="M 145 230v 5h 2.5a 2.5 2.5, 0, 0, 0, 0 -5" transform="rotate(180,147.5,232.5)"/>
      <path d="M 150 15v 5h 5v -2.5a 2.5 2.5, 0, 0, 0, -2.5 -2.5" transform="rotate(0,152.5,17.5)"/>
      <path d="M 150 20v 5h 5v -2.5a 2.5 2.5, 0, 0, 0, -2.5 -2.5" transform="rotate(90,152.5,22.5)"/>
      <path d="M 150 40v 5h 2.5a 2.5 2.5, 0, 0, 0, 0 -5" transform="rotate(0,152.5,42.5)"/>
      <path d="M 150 50v 5h 2.5a 2.5 2.5, 0, 0, 0, 0 -5" transform="rotate(180,152.5,52.5)"/>
      <path d="M 150 170v 5h 2.5a 2.5 2.5, 0, 0, 0, 0 -5" transform="rotate(180,152.5,172.5)"/>
      <path d="M 150 185v 5h 2.5a 2.5 2.5, 0, 0, 0, 0 -5" transform="rotate(180,152.5,187.5)"/>
      <path d="M 150 195v 5h 2.5a 2.5 2.5, 0, 0, 0, 0 -5" transform="rotate(0,152.5,197.5)"/>
      <path d="M 150 205v 5h 2.5a 2.5 2.5, 0, 0, 0, 0 -5" transform="rotate(180,152.5,207.5)"/>
      <path d="M 150 235v 5h 2.5a 2.5 2.5, 0, 0, 0, 0 -5" transform="rotate(90,152.5,237.5)"/>
      <path d="M 155 45v 5h 2.5a 2.5 2.5, 0, 0, 0, 0 -5" transform="rotate(-90,157.5,47.5)"/>
      <path d="M 155 60v 5h 5v -2.5a 2.5 2.5, 0, 0, 0, -2.5 -2.5" transform="rotate(180,157.5,62.5)"/>
      <path d="M 155 80v 5h 2.5a 2.5 2.5, 0, 0, 0, 0 -5" transform="rotate(180,157.5,82.5)"/>
      <path d="M 155 185v 5h 5v -2.5a 2.5 2.5, 0, 0, 0, -2.5 -2.5" transform="rotate(90,157.5,187.5)"/>
      <path d="M 155 200v 5h 2.5a 2.5 2.5, 0, 0, 0, 0 -5" transform="rotate(-90,157.5,202.5)"/>
      <path d="M 160 20v 5h 2.5a 2.5 2.5, 0, 0, 0, 0 -5" transform="rotate(180,162.5,22.5)"/>
      <path d="M 160 30v 5h 2.5a 2.5 2.5, 0, 0, 0, 0 -5" transform="rotate(180,162.5,32.5)"/>
      <path d="M 160 50v 5h 5v -2.5a 2.5 2.5, 0, 0, 0, -2.5 -2.5" transform="rotate(0,162.5,52.5)"/>
      <path d="M 160 65v 5h 5v -2.5a 2.5 2.5, 0, 0, 0, -2.5 -2.5" transform="rotate(180,162.5,67.5)"/>
      <path d="M 160 75v 5h 5v -2.5a 2.5 2.5, 0, 0, 0, -2.5 -2.5" transform="rotate(-90,162.5,77.5)"/>
      <path d="M 160 85v 5h 2.5a 2.5 2.5, 0, 0, 0, 0 -5" transform="rotate(90,162.5,87.5)"/>
      <path d="M 160 170v 5h 2.5a 2.5 2.5, 0, 0, 0, 0 -5" transform="rotate(0,162.5,172.5)"/>
      <path d="M 160 190v 5h 2.5a 2.5 2.5, 0, 0, 0, 0 -5" transform="rotate(-90,162.5,192.5)"/>
      <path d="M 160 195v 5h 5v -2.5a 2.5 2.5, 0, 0, 0, -2.5 -2.5" transform="rotate(180,162.5,197.5)"/>
      <path d="M 160 220v 5h 5v -2.5a 2.5 2.5, 0, 0, 0, -2.5 -2.5" transform="rotate(-90,162.5,222.5)"/>
      <path d="M 165 15v 5h 5v -2.5a 2.5 2.5, 0, 0, 0, -2.5 -2.5" transform="rotate(-90,167.5,17.5)"/>
      <path d="M 165 45v 5h 2.5a 2.5 2.5, 0, 0, 0, 0 -5" transform="rotate(90,167.5,47.5)"/>
      <path d="M 165 55v 5h 2.5a 2.5 2.5, 0, 0, 0, 0 -5" transform="rotate(0,167.5,57.5)"/>
      <path d="M 165 65v 5h 2.5a 2.5 2.5, 0, 0, 0, 0 -5" transform="rotate(0,167.5,67.5)"/>
      <path d="M 165 75v 5h 2.5a 2.5 2.5, 0, 0, 0, 0 -5" transform="rotate(0,167.5,77.5)"/>
      <path d="M 165 90v 5h 5v -2.5a 2.5 2.5, 0, 0, 0, -2.5 -2.5" transform="rotate(-90,167.5,92.5)"/>
      <path d="M 165 100v 5h 5v -2.5a 2.5 2.5, 0, 0, 0, -2.5 -2.5" transform="rotate(180,167.5,102.5)"/>
      <path d="M 165 120v 5h 2.5a 2.5 2.5, 0, 0, 0, 0 -5" transform="rotate(180,167.5,122.5)"/>
      <path d="M 165 150v 5h 2.5a 2.5 2.5, 0, 0, 0, 0 -5" transform="rotate(-90,167.5,152.5)"/>
      <path d="M 165 160v 5h 5v -2.5a 2.5 2.5, 0, 0, 0, -2.5 -2.5" transform="rotate(180,167.5,162.5)"/>
      <path d="M 165 180v 5h 2.5a 2.5 2.5, 0, 0, 0, 0 -5" transform="rotate(180,167.5,182.5)"/>
      <path d="M 165 215v 5h 5v -2.5a 2.5 2.5, 0, 0, 0, -2.5 -2.5" transform="rotate(-90,167.5,217.5)"/>
      <path d="M 165 220v 5h 5v -2.5a 2.5 2.5, 0, 0, 0, -2.5 -2.5" transform="rotate(90,167.5,222.5)"/>
      <path d="M 165 235v 5h 5v -2.5a 2.5 2.5, 0, 0, 0, -2.5 -2.5" transform="rotate(180,167.5,237.5)"/>
      <path d="M 170 40v 5h 2.5a 2.5 2.5, 0, 0, 0, 0 -5" transform="rotate(0,172.5,42.5)"/>
      <path d="M 170 80v 5h 2.5a 2.5 2.5, 0, 0, 0, 0 -5" transform="rotate(180,172.5,82.5)"/>
      <path d="M 170 90v 5h 5v -2.5a 2.5 2.5, 0, 0, 0, -2.5 -2.5" transform="rotate(0,172.5,92.5)"/>
      <path d="M 170 115v 5h 5v -2.5a 2.5 2.5, 0, 0, 0, -2.5 -2.5" transform="rotate(-90,172.5,117.5)"/>
      <path d="M 170 125v 5h 5v -2.5a 2.5 2.5, 0, 0, 0, -2.5 -2.5" transform="rotate(180,172.5,127.5)"/>
      <path d="M 170 145v 5h 2.5a 2.5 2.5, 0, 0, 0, 0 -5" transform="rotate(180,172.5,147.5)"/>
      <path d="M 170 160v 5h 5v -2.5a 2.5 2.5, 0, 0, 0, -2.5 -2.5" transform="rotate(0,172.5,162.5)"/>
      <path d="M 170 185v 5h 2.5a 2.5 2.5, 0, 0, 0, 0 -5" transform="rotate(90,172.5,187.5)"/>
      <path d="M 170 195v 5h 5v -2.5a 2.5 2.5, 0, 0, 0, -2.5 -2.5" transform="rotate(0,172.5,197.5)"/>
      <path d="M 170 215v 5h 5v -2.5a 2.5 2.5, 0, 0, 0, -2.5 -2.5" transform="rotate(90,172.5,217.5)"/>
      <path d="M 170 235v 5h 5v -2.5a 2.5 2.5, 0, 0, 0, -2.5 -2.5" transform="rotate(90,172.5,237.5)"/>
      <path d="M 175 15v 5h 2.5a 2.5 2.5, 0, 0, 0, 0 -5" transform="rotate(0,177.5,17.5)"/>
      <path d="M 175 35v 5h 2.5a 2.5 2.5, 0, 0, 0, 0 -5" transform="rotate(90,177.5,37.5)"/>
      <path d="M 175 45v 5h 2.5a 2.5 2.5, 0, 0, 0, 0 -5" transform="rotate(-90,177.5,47.5)"/>
      <path d="M 175 55v 5h 5v -2.5a 2.5 2.5, 0, 0, 0, -2.5 -2.5" transform="rotate(180,177.5,57.5)"/>
      <path d="M 175 75v 5h 2.5a 2.5 2.5, 0, 0, 0, 0 -5" transform="rotate(-90,177.5,77.5)"/>
      <path d="M 175 80v 5h 5v -2.5a 2.5 2.5, 0, 0, 0, -2.5 -2.5" transform="rotate(90,177.5,82.5)"/>
      <path d="M 175 140v 5h 5v -2.5a 2.5 2.5, 0, 0, 0, -2.5 -2.5" transform="rotate(-90,177.5,142.5)"/>
      <path d="M 175 155v 5h 2.5a 2.5 2.5, 0, 0, 0, 0 -5" transform="rotate(90,177.5,157.5)"/>
      <path d="M 175 190v 5h 2.5a 2.5 2.5, 0, 0, 0, 0 -5" transform="rotate(180,177.5,192.5)"/>
      <path d="M 175 205v 5h 2.5a 2.5 2.5, 0, 0, 0, 0 -5" transform="rotate(0,177.5,207.5)"/>
      <path d="M 180 25v 5h 2.5a 2.5 2.5, 0, 0, 0, 0 -5" transform="rotate(-90,182.5,27.5)"/>
      <path d="M 180 30v 5h 5v -2.5a 2.5 2.5, 0, 0, 0, -2.5 -2.5" transform="rotate(90,182.5,32.5)"/>
      <path d="M 180 70v 5h 5v -2.5a 2.5 2.5, 0, 0, 0, -2.5 -2.5" transform="rotate(180,182.5,72.5)"/>
      <path d="M 180 95v 5h 5v -2.5a 2.5 2.5, 0, 0, 0, -2.5 -2.5" transform="rotate(-90,182.5,97.5)"/>
      <path d="M 180 135v 5h 2.5a 2.5 2.5, 0, 0, 0, 0 -5" transform="rotate(-90,182.5,137.5)"/>
      <path d="M 180 140v 5h 5v -2.5a 2.5 2.5, 0, 0, 0, -2.5 -2.5" transform="rotate(90,182.5,142.5)"/>
      <path d="M 180 170v 5h 2.5a 2.5 2.5, 0, 0, 0, 0 -5" transform="rotate(0,182.5,172.5)"/>
      <path d="M 180 190v 5h 5v -2.5a 2.5 2.5, 0, 0, 0, -2.5 -2.5" transform="rotate(0,182.5,192.5)"/>
      <path d="M 180 200v 5h 2.5a 2.5 2.5, 0, 0, 0, 0 -5" transform="rotate(90,182.5,202.5)"/>
      <path d="M 180 230v 5h 5v -2.5a 2.5 2.5, 0, 0, 0, -2.5 -2.5" transform="rotate(0,182.5,232.5)"/>
      <path d="M 180 235v 5h 5v -2.5a 2.5 2.5, 0, 0, 0, -2.5 -2.5" transform="rotate(180,182.5,237.5)"/>
      <path d="M 185 35v 5h 2.5a 2.5 2.5, 0, 0, 0, 0 -5" transform="rotate(180,187.5,37.5)"/>
      <path d="M 185 45v 5h 2.5a 2.5 2.5, 0, 0, 0, 0 -5" transform="rotate(-90,187.5,47.5)"/>
      <path d="M 185 70v 5h 5v -2.5a 2.5 2.5, 0, 0, 0, -2.5 -2.5" transform="rotate(0,187.5,72.5)"/>
      <path d="M 185 80v 5h 2.5a 2.5 2.5, 0, 0, 0, 0 -5" transform="rotate(90,187.5,82.5)"/>
      <path d="M 185 90v 5h 2.5a 2.5 2.5, 0, 0, 0, 0 -5" transform="rotate(-90,187.5,92.5)"/>
      <path d="M 185 150v 5h 5v -2.5a 2.5 2.5, 0, 0, 0, -2.5 -2.5" transform="rotate(0,187.5,152.5)"/>
      <path d="M 185 155v 5h 5v -2.5a 2.5 2.5, 0, 0, 0, -2.5 -2.5" transform="rotate(180,187.5,157.5)"/>
      <path d="M 185 175v 5h 2.5a 2.5 2.5, 0, 0, 0, 0 -5" transform="rotate(-90,187.5,177.5)"/>
      <path d="M 185 185v 5h 5v -2.5a 2.5 2.5, 0, 0, 0, -2.5 -2.5" transform="rotate(180,187.5,187.5)"/>
      <path d="M 190 20v 5h 2.5a 2.5 2.5, 0, 0, 0, 0 -5" transform="rotate(-90,192.5,22.5)"/>
      <path d="M 190 50v 5h 2.5a 2.5 2.5, 0, 0, 0, 0 -5" transform="rotate(0,192.5,52.5)"/>
      <path d="M 190 75v 5h 2.5a 2.5 2.5, 0, 0, 0, 0 -5" transform="rotate(0,192.5,77.5)"/>
      <path d="M 190 95v 5h 2.5a 2.5 2.5, 0, 0, 0, 0 -5" transform="rotate(0,192.5,97.5)"/>
      <path d="M 190 105v 5h 5v -2.5a 2.5 2.5, 0, 0, 0, -2.5 -2.5" transform="rotate(0,192.5,107.5)"/>
      <path d="M 190 120v 5h 5v -2.5a 2.5 2.5, 0, 0, 0, -2.5 -2.5" transform="rotate(-90,192.5,122.5)"/>
      <path d="M 190 130v 5h 5v -2.5a 2.5 2.5, 0, 0, 0, -2.5 -2.5" transform="rotate(180,192.5,132.5)"/>
      <path d="M 190 140v 5h 5v -2.5a 2.5 2.5, 0, 0, 0, -2.5 -2.5" transform="rotate(-90,192.5,142.5)"/>
      <path d="M 190 145v 5h 5v -2.5a 2.5 2.5, 0, 0, 0, -2.5 -2.5" transform="rotate(180,192.5,147.5)"/>
      <path d="M 190 160v 5h 2.5a 2.5 2.5, 0, 0, 0, 0 -5" transform="rotate(90,192.5,162.5)"/>
      <path d="M 190 170v 5h 2.5a 2.5 2.5, 0, 0, 0, 0 -5" transform="rotate(180,192.5,172.5)"/>
      <path d="M 190 200v 5h 5v -2.5a 2.5 2.5, 0, 0, 0, -2.5 -2.5" transform="rotate(180,192.5,202.5)"/>
      <path d="M 190 210v 5h 5v -2.5a 2.5 2.5, 0, 0, 0, -2.5 -2.5" transform="rotate(-90,192.5,212.5)"/>
      <path d="M 190 220v 5h 5v -2.5a 2.5 2.5, 0, 0, 0, -2.5 -2.5" transform="rotate(180,192.5,222.5)"/>
      <path d="M 195 30v 5h 5v -2.5a 2.5 2.5, 0, 0, 0, -2.5 -2.5" transform="rotate(0,197.5,32.5)"/>
      <path d="M 195 35v 5h 5v -2.5a 2.5 2.5, 0, 0, 0, -2.5 -2.5" transform="rotate(90,197.5,37.5)"/>
      <path d="M 195 55v 5h 5v -2.5a 2.5 2.5, 0, 0, 0, -2.5 -2.5" transform="rotate(-90,197.5,57.5)"/>
      <path d="M 195 60v 5h 2.5a 2.5 2.5, 0, 0, 0, 0 -5" transform="rotate(90,197.5,62.5)"/>
      <path d="M 195 90v 5h 2.5a 2.5 2.5, 0, 0, 0, 0 -5" transform="rotate(180,197.5,92.5)"/>
      <path d="M 195 165v 5h 2.5a 2.5 2.5, 0, 0, 0, 0 -5" transform="rotate(-90,197.5,167.5)"/>
      <path d="M 195 175v 5h 2.5a 2.5 2.5, 0, 0, 0, 0 -5" transform="rotate(90,197.5,177.5)"/>
      <path d="M 195 220v 5h 5v -2.5a 2.5 2.5, 0, 0, 0, -2.5 -2.5" transform="rotate(90,197.5,222.5)"/>
      <path d="M 195 230v 5h 2.5a 2.5 2.5, 0, 0, 0, 0 -5" transform="rotate(-90,197.5,232.5)"/>
      <path d="M 200 65v 5h 2.5a 2.5 2.5, 0, 0, 0, 0 -5" transform="rotate(-90,202.5,67.5)"/>
      <path d="M 200 75v 5h 5v -2.5a 2.5 2.5, 0, 0, 0, -2.5 -2.5" transform="rotate(180,202.5,77.5)"/>
      <path d="M 200 90v 5h 2.5a 2.5 2.5, 0, 0, 0, 0 -5" transform="rotate(0,202.5,92.5)"/>
      <path d="M 200 145v 5h 5v -2.5a 2.5 2.5, 0, 0, 0, -2.5 -2.5" transform="rotate(0,202.5,147.5)"/>
      <path d="M 200 185v 5h 2.5a 2.5 2.5, 0, 0, 0, 0 -5" transform="rotate(0,202.5,187.5)"/>
      <path d="M 200 225v 5h 2.5a 2.5 2.5, 0, 0, 0, 0 -5" transform="rotate(180,202.5,227.5)"/>
      <path d="M 200 235v 5h 2.5a 2.5 2.5, 0, 0, 0, 0 -5" transform="rotate(0,202.5,237.5)"/>
      <path d="M 205 60v 5h 2.5a 2.5 2.5, 0, 0, 0, 0 -5" transform="rotate(90,207.5,62.5)"/>
      <path d="M 205 70v 5h 5v -2.5a 2.5 2.5, 0, 0, 0, -2.5 -2.5" transform="rotate(0,207.5,72.5)"/>
      <path d="M 205 100v 5h 5v -2.5a 2.5 2.5, 0, 0, 0, -2.5 -2.5" transform="rotate(-90,207.5,102.5)"/>
      <path d="M 205 150v 5h 5v -2.5a 2.5 2.5, 0, 0, 0, -2.5 -2.5" transform="rotate(0,207.5,152.5)"/>
      <path d="M 205 160v 5h 5v -2.5a 2.5 2.5, 0, 0, 0, -2.5 -2.5" transform="rotate(180,207.5,162.5)"/>
      <path d="M 205 230v 5h 5v -2.5a 2.5 2.5, 0, 0, 0, -2.5 -2.5" transform="rotate(180,207.5,232.5)"/>
      <path d="M 210 55v 5h 2.5a 2.5 2.5, 0, 0, 0, 0 -5" transform="rotate(0,212.5,57.5)"/>
      <path d="M 210 65v 5h 2.5a 2.5 2.5, 0, 0, 0, 0 -5" transform="rotate(180,212.5,67.5)"/>
      <path d="M 210 90v 5h 5v -2.5a 2.5 2.5, 0, 0, 0, -2.5 -2.5" transform="rotate(180,212.5,92.5)"/>
      <path d="M 210 100v 5h 2.5a 2.5 2.5, 0, 0, 0, 0 -5" transform="rotate(0,212.5,102.5)"/>
      <path d="M 210 145v 5h 2.5a 2.5 2.5, 0, 0, 0, 0 -5" transform="rotate(90,212.5,147.5)"/>
      <path d="M 210 155v 5h 5v -2.5a 2.5 2.5, 0, 0, 0, -2.5 -2.5" transform="rotate(0,212.5,157.5)"/>
      <path d="M 210 175v 5h 5v -2.5a 2.5 2.5, 0, 0, 0, -2.5 -2.5" transform="rotate(180,212.5,177.5)"/>
      <path d="M 210 190v 5h 2.5a 2.5 2.5, 0, 0, 0, 0 -5" transform="rotate(-90,212.5,192.5)"/>
      <path d="M 210 230v 5h 2.5a 2.5 2.5, 0, 0, 0, 0 -5" transform="rotate(0,212.5,232.5)"/>
      <path d="M 215 110v 5h 5v -2.5a 2.5 2.5, 0, 0, 0, -2.5 -2.5" transform="rotate(0,217.5,112.5)"/>
      <path d="M 215 135v 5h 5v -2.5a 2.5 2.5, 0, 0, 0, -2.5 -2.5" transform="rotate(90,217.5,137.5)"/>
      <path d="M 215 165v 5h 5v -2.5a 2.5 2.5, 0, 0, 0, -2.5 -2.5" transform="rotate(90,217.5,167.5)"/>
      <path d="M 215 175v 5h 5v -2.5a 2.5 2.5, 0, 0, 0, -2.5 -2.5" transform="rotate(0,217.5,177.5)"/>
      <path d="M 215 180v 5h 2.5a 2.5 2.5, 0, 0, 0, 0 -5" transform="rotate(90,217.5,182.5)"/>
      <path d="M 215 220v 5h 5v -2.5a 2.5 2.5, 0, 0, 0, -2.5 -2.5" transform="rotate(180,217.5,222.5)"/>
      <path d="M 215 235v 5h 2.5a 2.5 2.5, 0, 0, 0, 0 -5" transform="rotate(180,217.5,237.5)"/>
      <path d="M 220 55v 5h 2.5a 2.5 2.5, 0, 0, 0, 0 -5" transform="rotate(-90,222.5,57.5)"/>
      <path d="M 220 75v 5h 5v -2.5a 2.5 2.5, 0, 0, 0, -2.5 -2.5" transform="rotate(90,222.5,77.5)"/>
      <path d="M 220 90v 5h 5v -2.5a 2.5 2.5, 0, 0, 0, -2.5 -2.5" transform="rotate(0,222.5,92.5)"/>
      <path d="M 220 105v 5h 5v -2.5a 2.5 2.5, 0, 0, 0, -2.5 -2.5" transform="rotate(180,222.5,107.5)"/>
      <path d="M 220 125v 5h 5v -2.5a 2.5 2.5, 0, 0, 0, -2.5 -2.5" transform="rotate(0,222.5,127.5)"/>
      <path d="M 220 140v 5h 2.5a 2.5 2.5, 0, 0, 0, 0 -5" transform="rotate(-90,222.5,142.5)"/>
      <path d="M 220 145v 5h 2.5a 2.5 2.5, 0, 0, 0, 0 -5" transform="rotate(90,222.5,147.5)"/>
      <path d="M 220 160v 5h 2.5a 2.5 2.5, 0, 0, 0, 0 -5" transform="rotate(0,222.5,162.5)"/>
      <path d="M 220 220v 5h 5v -2.5a 2.5 2.5, 0, 0, 0, -2.5 -2.5" transform="rotate(90,222.5,222.5)"/>
      <path d="M 225 130v 5h 5v -2.5a 2.5 2.5, 0, 0, 0, -2.5 -2.5" transform="rotate(0,227.5,132.5)"/>
      <path d="M 225 135v 5h 2.5a 2.5 2.5, 0, 0, 0, 0 -5" transform="rotate(90,227.5,137.5)"/>
      <path d="M 225 155v 5h 2.5a 2.5 2.5, 0, 0, 0, 0 -5" transform="rotate(180,227.5,157.5)"/>
      <path d="M 225 170v 5h 5v -2.5a 2.5 2.5, 0, 0, 0, -2.5 -2.5" transform="rotate(-90,227.5,172.5)"/>
      <path d="M 225 175v 5h 5v -2.5a 2.5 2.5, 0, 0, 0, -2.5 -2.5" transform="rotate(180,227.5,177.5)"/>
      <path d="M 225 190v 5h 2.5a 2.5 2.5, 0, 0, 0, 0 -5" transform="rotate(-90,227.5,192.5)"/>
      <path d="M 225 210v 5h 5v -2.5a 2.5 2.5, 0, 0, 0, -2.5 -2.5" transform="rotate(0,227.5,212.5)"/>
      <path d="M 225 215v 5h 5v -2.5a 2.5 2.5, 0, 0, 0, -2.5 -2.5" transform="rotate(90,227.5,217.5)"/>
      <path d="M 225 230v 5h 2.5a 2.5 2.5, 0, 0, 0, 0 -5" transform="rotate(-90,227.5,232.5)"/>
      <path d="M 225 235v 5h 5v -2.5a 2.5 2.5, 0, 0, 0, -2.5 -2.5" transform="rotate(90,227.5,237.5)"/>
      <path d="M 230 55v 5h 2.5a 2.5 2.5, 0, 0, 0, 0 -5" transform="rotate(-90,232.5,57.5)"/>
      <path d="M 230 80v 5h 2.5a 2.5 2.5, 0, 0, 0, 0 -5" transform="rotate(180,232.5,82.5)"/>
      <path d="M 230 110v 5h 2.5a 2.5 2.5, 0, 0, 0, 0 -5" transform="rotate(90,232.5,112.5)"/>
      <path d="M 230 125v 5h 2.5a 2.5 2.5, 0, 0, 0, 0 -5" transform="rotate(180,232.5,127.5)"/>
      <path d="M 230 150v 5h 5v -2.5a 2.5 2.5, 0, 0, 0, -2.5 -2.5" transform="rotate(-90,232.5,152.5)"/>
      <path d="M 230 155v 5h 5v -2.5a 2.5 2.5, 0, 0, 0, -2.5 -2.5" transform="rotate(90,232.5,157.5)"/>
      <path d="M 230 165v 5h 2.5a 2.5 2.5, 0, 0, 0, 0 -5" transform="rotate(-90,232.5,167.5)"/>
      <path d="M 230 185v 5h 5v -2.5a 2.5 2.5, 0, 0, 0, -2.5 -2.5" transform="rotate(180,232.5,187.5)"/>
      <path d="M 230 195v 5h 5v -2.5a 2.5 2.5, 0, 0, 0, -2.5 -2.5" transform="rotate(0,232.5,197.5)"/>
      <path d="M 230 200v 5h 5v -2.5a 2.5 2.5, 0, 0, 0, -2.5 -2.5" transform="rotate(180,232.5,202.5)"/>
      <path d="M 235 60v 5h 5v -2.5a 2.5 2.5, 0, 0, 0, -2.5 -2.5" transform="rotate(0,237.5,62.5)"/>
      <path d="M 235 70v 5h 2.5a 2.5 2.5, 0, 0, 0, 0 -5" transform="rotate(90,237.5,72.5)"/>
      <path d="M 235 80v 5h 2.5a 2.5 2.5, 0, 0, 0, 0 -5" transform="rotate(0,237.5,82.5)"/>
      <path d="M 235 100v 5h 5v -2.5a 2.5 2.5, 0, 0, 0, -2.5 -2.5" transform="rotate(0,237.5,102.5)"/>
      <path d="M 235 105v 5h 5v -2.5a 2.5 2.5, 0, 0, 0, -2.5 -2.5" transform="rotate(90,237.5,107.5)"/>
      <path d="M 235 125v 5h 2.5a 2.5 2.5, 0, 0, 0, 0 -5" transform="rotate(0,237.5,127.5)"/>
      <path d="M 235 140v 5h 2.5a 2.5 2.5, 0, 0, 0, 0 -5" transform="rotate(-90,237.5,142.5)"/>
      <path d="M 235 150v 5h 5v -2.5a 2.5 2.5, 0, 0, 0, -2.5 -2.5" transform="rotate(90,237.5,152.5)"/>
      <path d="M 235 170v 5h 2.5a 2.5 2.5, 0, 0, 0, 0 -5" transform="rotate(0,237.5,172.5)"/>
      <path d="M 235 180v 5h 5v -2.5a 2.5 2.5, 0, 0, 0, -2.5 -2.5" transform="rotate(0,237.5,182.5)"/>
      <path d="M 235 190v 5h 2.5a 2.5 2.5, 0, 0, 0, 0 -5" transform="rotate(90,237.5,192.5)"/>
      <path d="M 235 200v 5h 5v -2.5a 2.5 2.5, 0, 0, 0, -2.5 -2.5" transform="rotate(0,237.5,202.5)"/>
      <path d="M 235 220v 5h 2.5a 2.5 2.5, 0, 0, 0, 0 -5" transform="rotate(90,237.5,222.5)"/>
      <path clip-rule="evenodd" d="M 15 27.5v 10a 12.5 12.5, 0, 0, 0, 12.5 12.5h 10a 12.5 12.5, 0, 0, 0, 12.5 -12.5v -10a 12.5 12.5, 0, 0, 0, -12.5 -12.5h -10a 12.5 12.5, 0, 0, 0, -12.5 12.5M 27.5 20h 10a 7.5 7.5, 0, 0, 1, 7.5 7.5v 10a 7.5 7.5, 0, 0, 1, -7.5 7.5h -10a 7.5 7.5, 0, 0, 1, -7.5 -7.5v -10a 7.5 7.5, 0, 0, 1, 7.5 -7.5" transform="rotate(0,32.5,32.5)"/>
      <path d="M 25 25v 5h 5v -2.5a 2.5 2.5, 0, 0, 0, -2.5 -2.5" transform="rotate(-90,27.5,27.5)"/>
      <path d="M 25 35v 5h 5v -2.5a 2.5 2.5, 0, 0, 0, -2.5 -2.5" transform="rotate(180,27.5,37.5)"/>
      <path d="M 35 25v 5h 5v -2.5a 2.5 2.5, 0, 0, 0, -2.5 -2.5" transform="rotate(0,37.5,27.5)"/>
      <path d="M 35 35v 5h 5v -2.5a 2.5 2.5, 0, 0, 0, -2.5 -2.5" transform="rotate(90,37.5,37.5)"/>
      <path clip-rule="evenodd" d="M 205 27.5v 10a 12.5 12.5, 0, 0, 0, 12.5 12.5h 10a 12.5 12.5, 0, 0, 0, 12.5 -12.5v -10a 12.5 12.5, 0, 0, 0, -12.5 -12.5h -10a 12.5 12.5, 0, 0, 0, -12.5 12.5M 217.5 20h 10a 7.5 7.5, 0, 0, 1, 7.5 7.5v 10a 7.5 7.5, 0, 0, 1, -7.5 7.5h -10a 7.5 7.5, 0, 0, 1, -7.5 -7.5v -10a 7.5 7.5, 0, 0, 1, 7.5 -7.5" transform="rotate(90,222.5,32.5)"/>
      <path d="M 215 25v 5h 5v -2.5a 2.5 2.5, 0, 0, 0, -2.5 -2.5" transform="rotate(-90,217.5,27.5)"/>
      <path d="M 215 35v 5h 5v -2.5a 2.5 2.5, 0, 0, 0, -2.5 -2.5" transform="rotate(180,217.5,37.5)"/>
      <path d="M 225 25v 5h 5v -2.5a 2.5 2.5, 0, 0, 0, -2.5 -2.5" transform="rotate(0,227.5,27.5)"/>
      <path d="M 225 35v 5h 5v -2.5a 2.5 2.5, 0, 0, 0, -2.5 -2.5" transform="rotate(90,227.5,37.5)"/>
      <path clip-rule="evenodd" d="M 15 217.5v 10a 12.5 12.5, 0, 0, 0, 12.5 12.5h 10a 12.5 12.5, 0, 0, 0, 12.5 -12.5v -10a 12.5 12.5, 0, 0, 0, -12.5 -12.5h -10a 12.5 12.5, 0, 0, 0, -12.5 12.5M 27.5 210h 10a 7.5 7.5, 0, 0, 1, 7.5 7.5v 10a 7.5 7.5, 0, 0, 1, -7.5 7.5h -10a 7.5 7.5, 0, 0, 1, -7.5 -7.5v -10a 7.5 7.5, 0, 0, 1, 7.5 -7.5" transform="rotate(-90,32.5,222.5)"/>
      <path d="M 25 215v 5h 5v -2.5a 2.5 2.5, 0, 0, 0, -2.5 -2.5" transform="rotate(-90,27.5,217.5)"/>
      <path d="M 25 225v 5h 5v -2.5a 2.5 2.5, 0, 0, 0, -2.5 -2.5" transform="rotate(180,27.5,227.5)"/>
      <path d="M 35 215v 5h 5v -2.5a 2.5 2.5, 0, 0, 0, -2.5 -2.5" transform="rotate(0,37.5,217.5)"/>
      <path d="M 35 225v 5h 5v -2.5a 2.5 2.5, 0, 0, 0, -2.5 -2.5" transform="rotate(90,37.5,227.5)"/>
      <rect x="15" y="60" width="5" height="5" transform="rotate(0,17.5,62.5)"/>
      <rect x="15" y="140" width="5" height="5" transform="rotate(0,17.5,142.5)"/>
      <rect x="15" y="160" width="5" height="5" transform="rotate(0,17.5,162.5)"/>
      <rect x="15" y="165" width="5" height="5" transform="rotate(0,17.5,167.5)"/>
      <rect x="20" y="115" width="5" height="5" transform="rotate(0,22.5,117.5)"/>
      <rect x="20" y="145" width="5" height="5" transform="rotate(0,22.5,147.5)"/>
      <rect x="20" y="150" width="5" height="5" transform="rotate(0,22.5,152.5)"/>
      <rect x="20" y="165" width="5" height="5" transform="rotate(0,22.5,167.5)"/>
      <rect x="20" y="170" width="5" height="5" transform="rotate(0,22.5,172.5)"/>
      <rect x="25" y="100" width="5" height="5" transform="rotate(0,27.5,102.5)"/>
      <rect x="25" y="115" width="5" height="5" transform="rotate(0,27.5,117.5)"/>
      <rect x="25" y="120" width="5" height="5" transform="rotate(0,27.5,122.5)"/>
      <rect x="25" y="145" width="5" height="5" transform="rotate(0,27.5,147.5)"/>
      <rect x="25" y="190" width="5" height="5" transform="rotate(0,27.5,192.5)"/>
      <rect x="30" y="75" width="5" height="5" transform="rotate(0,32.5,77.5)"/>
      <rect x="30" y="90" width="5" height="5" transform="rotate(0,32.5,92.5)"/>
      <rect x="30" y="95" width="5" height="5" transform="rotate(0,32.5,97.5)"/>
      <rect x="30" y="100" width="5" height="5" transform="rotate(0,32.5,102.5)"/>
      <rect x="30" y="115" width="5" height="5" transform="rotate(0,32.5,117.5)"/>
      <rect x="30" y="120" width="5" height="5" transform="rotate(0,32.5,122.5)"/>
      <rect x="30" y="135" width="5" height="5" transform="rotate(0,32.5,137.5)"/>
      <rect x="30" y="140" width="5" height="5" transform="rotate(0,32.5,142.5)"/>
      <rect x="30" y="190" width="5" height="5" transform="rotate(0,32.5,192.5)"/>
      <rect x="35" y="60" width="5" height="5" transform="rotate(0,37.5,62.5)"/>
      <rect x="35" y="80" width="5" height="5" transform="rotate(0,37.5,82.5)"/>
      <rect x="35" y="85" width="5" height="5" transform="rotate(0,37.5,87.5)"/>
      <rect x="35" y="90" width="5" height="5" transform="rotate(0,37.5,92.5)"/>
      <rect x="35" y="105" width="5" height="5" transform="rotate(0,37.5,107.5)"/>
      <rect x="35" y="110" width="5" height="5" transform="rotate(0,37.5,112.5)"/>
      <rect x="35" y="115" width="5" height="5" transform="rotate(0,37.5,117.5)"/>
      <rect x="35" y="120" width="5" height="5" transform="rotate(0,37.5,122.5)"/>
      <rect x="35" y="125" width="5" height="5" transform="rotate(0,37.5,127.5)"/>
      <rect x="35" y="130" width="5" height="5" transform="rotate(0,37.5,132.5)"/>
      <rect x="35" y="135" width="5" height="5" transform="rotate(0,37.5,137.5)"/>
      <rect x="35" y="155" width="5" height="5" transform="rotate(0,37.5,157.5)"/>
      <rect x="35" y="160" width="5" height="5" transform="rotate(0,37.5,162.5)"/>
      <rect x="35" y="165" width="5" height="5" transform="rotate(0,37.5,167.5)"/>
      <rect x="35" y="185" width="5" height="5" transform="rotate(0,37.5,187.5)"/>
      <rect x="35" y="190" width="5" height="5" transform="rotate(0,37.5,192.5)"/>
      <rect x="40" y="60" width="5" height="5" transform="rotate(0,42.5,62.5)"/>
      <rect x="40" y="65" width="5" height="5" transform="rotate(0,42.5,67.5)"/>
      <rect x="40" y="85" width="5" height="5" transform="rotate(0,42.5,87.5)"/>
      <rect x="40" y="105" width="5" height="5" transform="rotate(0,42.5,107.5)"/>
      <rect x="40" y="110" width="5" height="5" transform="rotate(0,42.5,112.5)"/>
      <rect x="40" y="115" width="5" height="5" transform="rotate(0,42.5,117.5)"/>
      <rect x="40" y="135" width="5" height="5" transform="rotate(0,42.5,137.5)"/>
      <rect x="40" y="140" width="5" height="5" transform="rotate(0,42.5,142.5)"/>
      <rect x="40" y="165" width="5" height="5" transform="rotate(0,42.5,167.5)"/>
      <rect x="45" y="55" width="5" height="5" transform="rotate(0,47.5,57.5)"/>
      <rect x="45" y="85" width="5" height="5" transform="rotate(0,47.5,87.5)"/>
      <rect x="45" y="115" width="5" height="5" transform="rotate(0,47.5,117.5)"/>
      <rect x="45" y="135" width="5" height="5" transform="rotate(0,47.5,137.5)"/>
      <rect x="45" y="165" width="5" height="5" transform="rotate(0,47.5,167.5)"/>
      <rect x="50" y="55" width="5" height="5" transform="rotate(0,52.5,57.5)"/>
      <rect x="50" y="115" width="5" height="5" transform="rotate(0,52.5,117.5)"/>
      <rect x="50" y="135" width="5" height="5" transform="rotate(0,52.5,137.5)"/>
      <rect x="50" y="165" width="5" height="5" transform="rotate(0,52.5,167.5)"/>
      <rect x="50" y="170" width="5" height="5" transform="rotate(0,52.5,172.5)"/>
      <rect x="50" y="185" width="5" height="5" transform="rotate(0,52.5,187.5)"/>
      <rect x="50" y="190" width="5" height="5" transform="rotate(0,52.5,192.5)"/>
      <rect x="55" y="45" width="5" height="5" transform="rotate(0,57.5,47.5)"/>
      <rect x="55" y="50" width="5" height="5" transform="rotate(0,57.5,52.5)"/>
      <rect x="55" y="55" width="5" height="5" transform="rotate(0,57.5,57.5)"/>
      <rect x="55" y="60" width="5" height="5" transform="rotate(0,57.5,62.5)"/>
      <rect x="55" y="100" width="5" height="5" transform="rotate(0,57.5,102.5)"/>
      <rect x="55" y="105" width="5" height="5" transform="rotate(0,57.5,107.5)"/>
      <rect x="55" y="110" width="5" height="5" transform="rotate(0,57.5,112.5)"/>
      <rect x="55" y="115" width="5" height="5" transform="rotate(0,57.5,117.5)"/>
      <rect x="55" y="120" width="5" height="5" transform="rotate(0,57.5,122.5)"/>
      <rect x="55" y="125" width="5" height="5" transform="rotate(0,57.5,127.5)"/>
      <rect x="55" y="130" width="5" height="5" transform="rotate(0,57.5,132.5)"/>
      <rect x="55" y="135" width="5" height="5" transform="rotate(0,57.5,137.5)"/>
      <rect x="55" y="155" width="5" height="5" transform="rotate(0,57.5,157.5)"/>
      <rect x="55" y="185" width="5" height="5" transform="rotate(0,57.5,187.5)"/>
      <rect x="55" y="205" width="5" height="5" transform="rotate(0,57.5,207.5)"/>
      <rect x="60" y="30" width="5" height="5" transform="rotate(0,62.5,32.5)"/>
      <rect x="60" y="50" width="5" height="5" transform="rotate(0,62.5,52.5)"/>
      <rect x="60" y="65" width="5" height="5" transform="rotate(0,62.5,67.5)"/>
      <rect x="60" y="70" width="5" height="5" transform="rotate(0,62.5,72.5)"/>
      <rect x="60" y="95" width="5" height="5" transform="rotate(0,62.5,97.5)"/>
      <rect x="60" y="105" width="5" height="5" transform="rotate(0,62.5,107.5)"/>
      <rect x="60" y="115" width="5" height="5" transform="rotate(0,62.5,117.5)"/>
      <rect x="60" y="125" width="5" height="5" transform="rotate(0,62.5,127.5)"/>
      <rect x="60" y="155" width="5" height="5" transform="rotate(0,62.5,157.5)"/>
      <rect x="60" y="235" width="5" height="5" transform="rotate(0,62.5,237.5)"/>
      <rect x="65" y="30" width="5" height="5" transform="rotate(0,67.5,32.5)"/>
      <rect x="65" y="35" width="5" height="5" transform="rotate(0,67.5,37.5)"/>
      <rect x="65" y="40" width="5" height="5" transform="rotate(0,67.5,42.5)"/>
      <rect x="65" y="45" width="5" height="5" transform="rotate(0,67.5,47.5)"/>
      <rect x="65" y="115" width="5" height="5" transform="rotate(0,67.5,117.5)"/>
      <rect x="65" y="155" width="5" height="5" transform="rotate(0,67.5,157.5)"/>
      <rect x="65" y="235" width="5" height="5" transform="rotate(0,67.5,237.5)"/>
      <rect x="70" y="15" width="5" height="5" transform="rotate(0,72.5,17.5)"/>
      <rect x="70" y="30" width="5" height="5" transform="rotate(0,72.5,32.5)"/>
      <rect x="70" y="35" width="5" height="5" transform="rotate(0,72.5,37.5)"/>
      <rect x="70" y="135" width="5" height="5" transform="rotate(0,72.5,137.5)"/>
      <rect x="70" y="155" width="5" height="5" transform="rotate(0,72.5,157.5)"/>
      <rect x="70" y="180" width="5" height="5" transform="rotate(0,72.5,182.5)"/>
      <rect x="70" y="185" width="5" height="5" transform="rotate(0,72.5,187.5)"/>
      <rect x="70" y="210" width="5" height="5" transform="rotate(0,72.5,212.5)"/>
      <rect x="70" y="215" width="5" height="5" transform="rotate(0,72.5,217.5)"/>
      <rect x="70" y="220" width="5" height="5" transform="rotate(0,72.5,222.5)"/>
      <rect x="75" y="15" width="5" height="5" transform="rotate(0,77.5,17.5)"/>
      <rect x="75" y="20" width="5" height="5" transform="rotate(0,77.5,22.5)"/>
      <rect x="75" y="25" width="5" height="5" transform="rotate(0,77.5,27.5)"/>
      <rect x="75" y="30" width="5" height="5" transform="rotate(0,77.5,32.5)"/>
      <rect x="75" y="35" width="5" height="5" transform="rotate(0,77.5,37.5)"/>
      <rect x="75" y="50" width="5" height="5" transform="rotate(0,77.5,52.5)"/>
      <rect x="75" y="70" width="5" height="5" transform="rotate(0,77.5,72.5)"/>
      <rect x="75" y="150" width="5" height="5" transform="rotate(0,77.5,152.5)"/>
      <rect x="75" y="155" width="5" height="5" transform="rotate(0,77.5,157.5)"/>
      <rect x="75" y="175" width="5" height="5" transform="rotate(0,77.5,177.5)"/>
      <rect x="75" y="215" width="5" height="5" transform="rotate(0,77.5,217.5)"/>
      <rect x="75" y="220" width="5" height="5" transform="rotate(0,77.5,222.5)"/>
      <rect x="80" y="35" width="5" height="5" transform="rotate(0,82.5,37.5)"/>
      <rect x="80" y="50" width="5" height="5" transform="rotate(0,82.5,52.5)"/>
      <rect x="80" y="65" width="5" height="5" transform="rotate(0,82.5,67.5)"/>
      <rect x="80" y="135" width="5" height="5" transform="rotate(0,82.5,137.5)"/>
      <rect x="85" y="30" width="5" height="5" transform="rotate(0,87.5,32.5)"/>
      <rect x="85" y="35" width="5" height="5" transform="rotate(0,87.5,37.5)"/>
      <rect x="85" y="40" width="5" height="5" transform="rotate(0,87.5,42.5)"/>
      <rect x="85" y="45" width="5" height="5" transform="rotate(0,87.5,47.5)"/>
      <rect x="85" y="50" width="5" height="5" transform="rotate(0,87.5,52.5)"/>
      <rect x="85" y="65" width="5" height="5" transform="rotate(0,87.5,67.5)"/>
      <rect x="85" y="70" width="5" height="5" transform="rotate(0,87.5,72.5)"/>
      <rect x="85" y="75" width="5" height="5" transform="rotate(0,87.5,77.5)"/>
      <rect x="85" y="210" width="5" height="5" transform="rotate(0,87.5,212.5)"/>
      <rect x="90" y="20" width="5" height="5" transform="rotate(0,92.5,22.5)"/>
      <rect x="90" y="25" width="5" height="5" transform="rotate(0,92.5,27.5)"/>
      <rect x="90" y="35" width="5" height="5" transform="rotate(0,92.5,37.5)"/>
      <rect x="90" y="50" width="5" height="5" transform="rotate(0,92.5,52.5)"/>
      <rect x="90" y="175" width="5" height="5" transform="rotate(0,92.5,177.5)"/>
      <rect x="90" y="180" width="5" height="5" transform="rotate(0,92.5,182.5)"/>
      <rect x="95" y="40" width="5" height="5" transform="rotate(0,97.5,42.5)"/>
      <rect x="95" y="45" width="5" height="5" transform="rotate(0,97.5,47.5)"/>
      <rect x="95" y="50" width="5" height="5" transform="rotate(0,97.5,52.5)"/>
      <rect x="95" y="85" width="5" height="5" transform="rotate(0,97.5,87.5)"/>
      <rect x="95" y="175" width="5" height="5" transform="rotate(0,97.5,177.5)"/>
      <rect x="100" y="40" width="5" height="5" transform="rotate(0,102.5,42.5)"/>
      <rect x="100" y="210" width="5" height="5" transform="rotate(0,102.5,212.5)"/>
      <rect x="100" y="215" width="5" height="5" transform="rotate(0,102.5,217.5)"/>
      <rect x="105" y="15" width="5" height="5" transform="rotate(0,107.5,17.5)"/>
      <rect x="105" y="40" width="5" height="5" transform="rotate(0,107.5,42.5)"/>
      <rect x="105" y="230" width="5" height="5" transform="rotate(0,107.5,232.5)"/>
      <rect x="110" y="15" width="5" height="5" transform="rotate(0,112.5,17.5)"/>
      <rect x="110" y="20" width="5" height="5" transform="rotate(0,112.5,22.5)"/>
      <rect x="110" y="25" width="5" height="5" transform="rotate(0,112.5,27.5)"/>
      <rect x="110" y="30" width="5" height="5" transform="rotate(0,112.5,32.5)"/>
      <rect x="110" y="35" width="5" height="5" transform="rotate(0,112.5,37.5)"/>
      <rect x="110" y="40" width="5" height="5" transform="rotate(0,112.5,42.5)"/>
      <rect x="115" y="15" width="5" height="5" transform="rotate(0,117.5,17.5)"/>
      <rect x="115" y="20" width="5" height="5" transform="rotate(0,117.5,22.5)"/>
      <rect x="115" y="35" width="5" height="5" transform="rotate(0,117.5,37.5)"/>
      <rect x="115" y="40" width="5" height="5" transform="rotate(0,117.5,42.5)"/>
      <rect x="115" y="45" width="5" height="5" transform="rotate(0,117.5,47.5)"/>
      <rect x="115" y="50" width="5" height="5" transform="rotate(0,117.5,52.5)"/>
      <rect x="115" y="55" width="5" height="5" transform="rotate(0,117.5,57.5)"/>
      <rect x="115" y="60" width="5" height="5" transform="rotate(0,117.5,62.5)"/>
      <rect x="115" y="195" width="5" height="5" transform="rotate(0,117.5,197.5)"/>
      <rect x="115" y="200" width="5" height="5" transform="rotate(0,117.5,202.5)"/>
      <rect x="115" y="205" width="5" height="5" transform="rotate(0,117.5,207.5)"/>
      <rect x="115" y="210" width="5" height="5" transform="rotate(0,117.5,212.5)"/>
      <rect x="115" y="215" width="5" height="5" transform="rotate(0,117.5,217.5)"/>
      <rect x="120" y="20" width="5" height="5" transform="rotate(0,122.5,22.5)"/>
      <rect x="120" y="35" width="5" height="5" transform="rotate(0,122.5,37.5)"/>
      <rect x="120" y="55" width="5" height="5" transform="rotate(0,122.5,57.5)"/>
      <rect x="120" y="195" width="5" height="5" transform="rotate(0,122.5,197.5)"/>
      <rect x="120" y="215" width="5" height="5" transform="rotate(0,122.5,217.5)"/>
      <rect x="120" y="220" width="5" height="5" transform="rotate(0,122.5,222.5)"/>
      <rect x="125" y="35" width="5" height="5" transform="rotate(0,127.5,37.5)"/>
      <rect x="125" y="55" width="5" height="5" transform="rotate(0,127.5,57.5)"/>
      <rect x="125" y="70" width="5" height="5" transform="rotate(0,127.5,72.5)"/>
      <rect x="125" y="180" width="5" height="5" transform="rotate(0,127.5,182.5)"/>
      <rect x="125" y="185" width="5" height="5" transform="rotate(0,127.5,187.5)"/>
      <rect x="125" y="190" width="5" height="5" transform="rotate(0,127.5,192.5)"/>
      <rect x="125" y="195" width="5" height="5" transform="rotate(0,127.5,197.5)"/>
      <rect x="125" y="215" width="5" height="5" transform="rotate(0,127.5,217.5)"/>
      <rect x="125" y="220" width="5" height="5" transform="rotate(0,127.5,222.5)"/>
      <rect x="130" y="30" width="5" height="5" transform="rotate(0,132.5,32.5)"/>
      <rect x="130" y="35" width="5" height="5" transform="rotate(0,132.5,37.5)"/>
      <rect x="130" y="55" width="5" height="5" transform="rotate(0,132.5,57.5)"/>
      <rect x="130" y="60" width="5" height="5" transform="rotate(0,132.5,62.5)"/>
      <rect x="130" y="65" width="5" height="5" transform="rotate(0,132.5,67.5)"/>
      <rect x="130" y="70" width="5" height="5" transform="rotate(0,132.5,72.5)"/>
      <rect x="130" y="195" width="5" height="5" transform="rotate(0,132.5,197.5)"/>
      <rect x="130" y="215" width="5" height="5" transform="rotate(0,132.5,217.5)"/>
      <rect x="130" y="220" width="5" height="5" transform="rotate(0,132.5,222.5)"/>
      <rect x="135" y="40" width="5" height="5" transform="rotate(0,137.5,42.5)"/>
      <rect x="135" y="45" width="5" height="5" transform="rotate(0,137.5,47.5)"/>
      <rect x="135" y="50" width="5" height="5" transform="rotate(0,137.5,52.5)"/>
      <rect x="135" y="55" width="5" height="5" transform="rotate(0,137.5,57.5)"/>
      <rect x="135" y="85" width="5" height="5" transform="rotate(0,137.5,87.5)"/>
      <rect x="135" y="170" width="5" height="5" transform="rotate(0,137.5,172.5)"/>
      <rect x="135" y="200" width="5" height="5" transform="rotate(0,137.5,202.5)"/>
      <rect x="135" y="205" width="5" height="5" transform="rotate(0,137.5,207.5)"/>
      <rect x="135" y="210" width="5" height="5" transform="rotate(0,137.5,212.5)"/>
      <rect x="135" y="215" width="5" height="5" transform="rotate(0,137.5,217.5)"/>
      <rect x="140" y="55" width="5" height="5" transform="rotate(0,142.5,57.5)"/>
      <rect x="140" y="60" width="5" height="5" transform="rotate(0,142.5,62.5)"/>
      <rect x="140" y="200" width="5" height="5" transform="rotate(0,142.5,202.5)"/>
      <rect x="140" y="215" width="5" height="5" transform="rotate(0,142.5,217.5)"/>
      <rect x="145" y="20" width="5" height="5" transform="rotate(0,147.5,22.5)"/>
      <rect x="145" y="40" width="5" height="5" transform="rotate(0,147.5,42.5)"/>
      <rect x="150" y="230" width="5" height="5" transform="rotate(0,152.5,232.5)"/>
      <rect x="155" y="50" width="5" height="5" transform="rotate(0,157.5,52.5)"/>
      <rect x="155" y="55" width="5" height="5" transform="rotate(0,157.5,57.5)"/>
      <rect x="155" y="170" width="5" height="5" transform="rotate(0,157.5,172.5)"/>
      <rect x="155" y="175" width="5" height="5" transform="rotate(0,157.5,177.5)"/>
      <rect x="155" y="180" width="5" height="5" transform="rotate(0,157.5,182.5)"/>
      <rect x="155" y="205" width="5" height="5" transform="rotate(0,157.5,207.5)"/>
      <rect x="155" y="230" width="5" height="5" transform="rotate(0,157.5,232.5)"/>
      <rect x="160" y="55" width="5" height="5" transform="rotate(0,162.5,57.5)"/>
      <rect x="160" y="60" width="5" height="5" transform="rotate(0,162.5,62.5)"/>
      <rect x="160" y="80" width="5" height="5" transform="rotate(0,162.5,82.5)"/>
      <rect x="160" y="205" width="5" height="5" transform="rotate(0,162.5,207.5)"/>
      <rect x="160" y="225" width="5" height="5" transform="rotate(0,162.5,227.5)"/>
      <rect x="160" y="230" width="5" height="5" transform="rotate(0,162.5,232.5)"/>
      <rect x="165" y="20" width="5" height="5" transform="rotate(0,167.5,22.5)"/>
      <rect x="165" y="25" width="5" height="5" transform="rotate(0,167.5,27.5)"/>
      <rect x="165" y="30" width="5" height="5" transform="rotate(0,167.5,32.5)"/>
      <rect x="165" y="35" width="5" height="5" transform="rotate(0,167.5,37.5)"/>
      <rect x="165" y="40" width="5" height="5" transform="rotate(0,167.5,42.5)"/>
      <rect x="165" y="95" width="5" height="5" transform="rotate(0,167.5,97.5)"/>
      <rect x="165" y="155" width="5" height="5" transform="rotate(0,167.5,157.5)"/>
      <rect x="165" y="195" width="5" height="5" transform="rotate(0,167.5,197.5)"/>
      <rect x="165" y="200" width="5" height="5" transform="rotate(0,167.5,202.5)"/>
      <rect x="165" y="205" width="5" height="5" transform="rotate(0,167.5,207.5)"/>
      <rect x="165" y="230" width="5" height="5" transform="rotate(0,167.5,232.5)"/>
      <rect x="170" y="15" width="5" height="5" transform="rotate(0,172.5,17.5)"/>
      <rect x="170" y="30" width="5" height="5" transform="rotate(0,172.5,32.5)"/>
      <rect x="170" y="95" width="5" height="5" transform="rotate(0,172.5,97.5)"/>
      <rect x="170" y="100" width="5" height="5" transform="rotate(0,172.5,102.5)"/>
      <rect x="170" y="120" width="5" height="5" transform="rotate(0,172.5,122.5)"/>
      <rect x="170" y="165" width="5" height="5" transform="rotate(0,172.5,167.5)"/>
      <rect x="170" y="170" width="5" height="5" transform="rotate(0,172.5,172.5)"/>
      <rect x="170" y="175" width="5" height="5" transform="rotate(0,172.5,177.5)"/>
      <rect x="170" y="180" width="5" height="5" transform="rotate(0,172.5,182.5)"/>
      <rect x="170" y="200" width="5" height="5" transform="rotate(0,172.5,202.5)"/>
      <rect x="170" y="205" width="5" height="5" transform="rotate(0,172.5,207.5)"/>
      <rect x="170" y="210" width="5" height="5" transform="rotate(0,172.5,212.5)"/>
      <rect x="170" y="230" width="5" height="5" transform="rotate(0,172.5,232.5)"/>
      <rect x="175" y="30" width="5" height="5" transform="rotate(0,177.5,32.5)"/>
      <rect x="175" y="50" width="5" height="5" transform="rotate(0,177.5,52.5)"/>
      <rect x="175" y="100" width="5" height="5" transform="rotate(0,177.5,102.5)"/>
      <rect x="175" y="105" width="5" height="5" transform="rotate(0,177.5,107.5)"/>
      <rect x="175" y="110" width="5" height="5" transform="rotate(0,177.5,112.5)"/>
      <rect x="175" y="115" width="5" height="5" transform="rotate(0,177.5,117.5)"/>
      <rect x="175" y="120" width="5" height="5" transform="rotate(0,177.5,122.5)"/>
      <rect x="175" y="125" width="5" height="5" transform="rotate(0,177.5,127.5)"/>
      <rect x="175" y="145" width="5" height="5" transform="rotate(0,177.5,147.5)"/>
      <rect x="175" y="150" width="5" height="5" transform="rotate(0,177.5,152.5)"/>
      <rect x="175" y="170" width="5" height="5" transform="rotate(0,177.5,172.5)"/>
      <rect x="175" y="230" width="5" height="5" transform="rotate(0,177.5,232.5)"/>
      <rect x="180" y="50" width="5" height="5" transform="rotate(0,182.5,52.5)"/>
      <rect x="180" y="55" width="5" height="5" transform="rotate(0,182.5,57.5)"/>
      <rect x="180" y="60" width="5" height="5" transform="rotate(0,182.5,62.5)"/>
      <rect x="180" y="65" width="5" height="5" transform="rotate(0,182.5,67.5)"/>
      <rect x="180" y="100" width="5" height="5" transform="rotate(0,182.5,102.5)"/>
      <rect x="180" y="110" width="5" height="5" transform="rotate(0,182.5,112.5)"/>
      <rect x="180" y="115" width="5" height="5" transform="rotate(0,182.5,117.5)"/>
      <rect x="180" y="120" width="5" height="5" transform="rotate(0,182.5,122.5)"/>
      <rect x="180" y="125" width="5" height="5" transform="rotate(0,182.5,127.5)"/>
      <rect x="180" y="150" width="5" height="5" transform="rotate(0,182.5,152.5)"/>
      <rect x="180" y="195" width="5" height="5" transform="rotate(0,182.5,197.5)"/>
      <rect x="185" y="50" width="5" height="5" transform="rotate(0,187.5,52.5)"/>
      <rect x="185" y="75" width="5" height="5" transform="rotate(0,187.5,77.5)"/>
      <rect x="185" y="95" width="5" height="5" transform="rotate(0,187.5,97.5)"/>
      <rect x="185" y="100" width="5" height="5" transform="rotate(0,187.5,102.5)"/>
      <rect x="185" y="105" width="5" height="5" transform="rotate(0,187.5,107.5)"/>
      <rect x="185" y="110" width="5" height="5" transform="rotate(0,187.5,112.5)"/>
      <rect x="185" y="125" width="5" height="5" transform="rotate(0,187.5,127.5)"/>
      <rect x="185" y="180" width="5" height="5" transform="rotate(0,187.5,182.5)"/>
      <rect x="185" y="195" width="5" height="5" transform="rotate(0,187.5,197.5)"/>
      <rect x="185" y="235" width="5" height="5" transform="rotate(0,187.5,237.5)"/>
      <rect x="190" y="25" width="5" height="5" transform="rotate(0,192.5,27.5)"/>
      <rect x="190" y="30" width="5" height="5" transform="rotate(0,192.5,32.5)"/>
      <rect x="190" y="35" width="5" height="5" transform="rotate(0,192.5,37.5)"/>
      <rect x="190" y="110" width="5" height="5" transform="rotate(0,192.5,112.5)"/>
      <rect x="190" y="125" width="5" height="5" transform="rotate(0,192.5,127.5)"/>
      <rect x="190" y="155" width="5" height="5" transform="rotate(0,192.5,157.5)"/>
      <rect x="190" y="185" width="5" height="5" transform="rotate(0,192.5,187.5)"/>
      <rect x="190" y="190" width="5" height="5" transform="rotate(0,192.5,192.5)"/>
      <rect x="190" y="195" width="5" height="5" transform="rotate(0,192.5,197.5)"/>
      <rect x="190" y="215" width="5" height="5" transform="rotate(0,192.5,217.5)"/>
      <rect x="190" y="235" width="5" height="5" transform="rotate(0,192.5,237.5)"/>
      <rect x="195" y="110" width="5" height="5" transform="rotate(0,197.5,112.5)"/>
      <rect x="195" y="115" width="5" height="5" transform="rotate(0,197.5,117.5)"/>
      <rect x="195" y="120" width="5" height="5" transform="rotate(0,197.5,122.5)"/>
      <rect x="195" y="125" width="5" height="5" transform="rotate(0,197.5,127.5)"/>
      <rect x="195" y="130" width="5" height="5" transform="rotate(0,197.5,132.5)"/>
      <rect x="195" y="135" width="5" height="5" transform="rotate(0,197.5,137.5)"/>
      <rect x="195" y="140" width="5" height="5" transform="rotate(0,197.5,142.5)"/>
      <rect x="195" y="145" width="5" height="5" transform="rotate(0,197.5,147.5)"/>
      <rect x="195" y="150" width="5" height="5" transform="rotate(0,197.5,152.5)"/>
      <rect x="195" y="155" width="5" height="5" transform="rotate(0,197.5,157.5)"/>
      <rect x="195" y="170" width="5" height="5" transform="rotate(0,197.5,172.5)"/>
      <rect x="195" y="185" width="5" height="5" transform="rotate(0,197.5,187.5)"/>
      <rect x="195" y="195" width="5" height="5" transform="rotate(0,197.5,197.5)"/>
      <rect x="195" y="200" width="5" height="5" transform="rotate(0,197.5,202.5)"/>
      <rect x="195" y="205" width="5" height="5" transform="rotate(0,197.5,207.5)"/>
      <rect x="195" y="210" width="5" height="5" transform="rotate(0,197.5,212.5)"/>
      <rect x="195" y="215" width="5" height="5" transform="rotate(0,197.5,217.5)"/>
      <rect x="195" y="235" width="5" height="5" transform="rotate(0,197.5,237.5)"/>
      <rect x="200" y="55" width="5" height="5" transform="rotate(0,202.5,57.5)"/>
      <rect x="200" y="70" width="5" height="5" transform="rotate(0,202.5,72.5)"/>
      <rect x="200" y="110" width="5" height="5" transform="rotate(0,202.5,112.5)"/>
      <rect x="200" y="115" width="5" height="5" transform="rotate(0,202.5,117.5)"/>
      <rect x="200" y="135" width="5" height="5" transform="rotate(0,202.5,137.5)"/>
      <rect x="200" y="150" width="5" height="5" transform="rotate(0,202.5,152.5)"/>
      <rect x="200" y="155" width="5" height="5" transform="rotate(0,202.5,157.5)"/>
      <rect x="200" y="195" width="5" height="5" transform="rotate(0,202.5,197.5)"/>
      <rect x="200" y="215" width="5" height="5" transform="rotate(0,202.5,217.5)"/>
      <rect x="205" y="55" width="5" height="5" transform="rotate(0,207.5,57.5)"/>
      <rect x="205" y="75" width="5" height="5" transform="rotate(0,207.5,77.5)"/>
      <rect x="205" y="105" width="5" height="5" transform="rotate(0,207.5,107.5)"/>
      <rect x="205" y="110" width="5" height="5" transform="rotate(0,207.5,112.5)"/>
      <rect x="205" y="115" width="5" height="5" transform="rotate(0,207.5,117.5)"/>
      <rect x="205" y="135" width="5" height="5" transform="rotate(0,207.5,137.5)"/>
      <rect x="205" y="155" width="5" height="5" transform="rotate(0,207.5,157.5)"/>
      <rect x="205" y="195" width="5" height="5" transform="rotate(0,207.5,197.5)"/>
      <rect x="205" y="215" width="5" height="5" transform="rotate(0,207.5,217.5)"/>
      <rect x="205" y="220" width="5" height="5" transform="rotate(0,207.5,222.5)"/>
      <rect x="205" y="225" width="5" height="5" transform="rotate(0,207.5,227.5)"/>
      <rect x="210" y="75" width="5" height="5" transform="rotate(0,212.5,77.5)"/>
      <rect x="210" y="80" width="5" height="5" transform="rotate(0,212.5,82.5)"/>
      <rect x="210" y="85" width="5" height="5" transform="rotate(0,212.5,87.5)"/>
      <rect x="210" y="110" width="5" height="5" transform="rotate(0,212.5,112.5)"/>
      <rect x="210" y="115" width="5" height="5" transform="rotate(0,212.5,117.5)"/>
      <rect x="210" y="135" width="5" height="5" transform="rotate(0,212.5,137.5)"/>
      <rect x="210" y="140" width="5" height="5" transform="rotate(0,212.5,142.5)"/>
      <rect x="210" y="160" width="5" height="5" transform="rotate(0,212.5,162.5)"/>
      <rect x="210" y="165" width="5" height="5" transform="rotate(0,212.5,167.5)"/>
      <rect x="210" y="170" width="5" height="5" transform="rotate(0,212.5,172.5)"/>
      <rect x="210" y="195" width="5" height="5" transform="rotate(0,212.5,197.5)"/>
      <rect x="210" y="215" width="5" height="5" transform="rotate(0,212.5,217.5)"/>
      <rect x="215" y="65" width="5" height="5" transform="rotate(0,217.5,67.5)"/>
      <rect x="215" y="75" width="5" height="5" transform="rotate(0,217.5,77.5)"/>
      <rect x="215" y="80" width="5" height="5" transform="rotate(0,217.5,82.5)"/>
      <rect x="215" y="85" width="5" height="5" transform="rotate(0,217.5,87.5)"/>
      <rect x="215" y="90" width="5" height="5" transform="rotate(0,217.5,92.5)"/>
      <rect x="215" y="115" width="5" height="5" transform="rotate(0,217.5,117.5)"/>
      <rect x="215" y="120" width="5" height="5" transform="rotate(0,217.5,122.5)"/>
      <rect x="215" y="125" width="5" height="5" transform="rotate(0,217.5,127.5)"/>
      <rect x="215" y="130" width="5" height="5" transform="rotate(0,217.5,132.5)"/>
      <rect x="215" y="160" width="5" height="5" transform="rotate(0,217.5,162.5)"/>
      <rect x="215" y="195" width="5" height="5" transform="rotate(0,217.5,197.5)"/>
      <rect x="215" y="200" width="5" height="5" transform="rotate(0,217.5,202.5)"/>
      <rect x="215" y="205" width="5" height="5" transform="rotate(0,217.5,207.5)"/>
      <rect x="215" y="210" width="5" height="5" transform="rotate(0,217.5,212.5)"/>
      <rect x="215" y="215" width="5" height="5" transform="rotate(0,217.5,217.5)"/>
      <rect x="220" y="60" width="5" height="5" transform="rotate(0,222.5,62.5)"/>
      <rect x="220" y="65" width="5" height="5" transform="rotate(0,222.5,67.5)"/>
      <rect x="220" y="70" width="5" height="5" transform="rotate(0,222.5,72.5)"/>
      <rect x="220" y="95" width="5" height="5" transform="rotate(0,222.5,97.5)"/>
      <rect x="220" y="100" width="5" height="5" transform="rotate(0,222.5,102.5)"/>
      <rect x="220" y="130" width="5" height="5" transform="rotate(0,222.5,132.5)"/>
      <rect x="220" y="195" width="5" height="5" transform="rotate(0,222.5,197.5)"/>
      <rect x="220" y="200" width="5" height="5" transform="rotate(0,222.5,202.5)"/>
      <rect x="220" y="205" width="5" height="5" transform="rotate(0,222.5,207.5)"/>
      <rect x="220" y="210" width="5" height="5" transform="rotate(0,222.5,212.5)"/>
      <rect x="220" y="215" width="5" height="5" transform="rotate(0,222.5,217.5)"/>
      <rect x="220" y="235" width="5" height="5" transform="rotate(0,222.5,237.5)"/>
      <rect x="225" y="60" width="5" height="5" transform="rotate(0,227.5,62.5)"/>
      <rect x="225" y="100" width="5" height="5" transform="rotate(0,227.5,102.5)"/>
      <rect x="225" y="105" width="5" height="5" transform="rotate(0,227.5,107.5)"/>
      <rect x="225" y="195" width="5" height="5" transform="rotate(0,227.5,197.5)"/>
      <rect x="230" y="60" width="5" height="5" transform="rotate(0,232.5,62.5)"/>
      <rect x="230" y="100" width="5" height="5" transform="rotate(0,232.5,102.5)"/>
      <rect x="230" y="105" width="5" height="5" transform="rotate(0,232.5,107.5)"/>
      <rect x="230" y="170" width="5" height="5" transform="rotate(0,232.5,172.5)"/>
      <rect x="230" y="175" width="5" height="5" transform="rotate(0,232.5,177.5)"/>
      <rect x="230" y="180" width="5" height="5" transform="rotate(0,232.5,182.5)"/>
      <rect x="235" y="65" width="5" height="5" transform="rotate(0,237.5,67.5)"/>
      <rect x="235" y="145" width="5" height="5" transform="rotate(0,237.5,147.5)"/>
      <rect x="235" y="185" width="5" height="5" transform="rotate(0,237.5,187.5)"/>
      <rect x="235" y="205" width="5" height="5" transform="rotate(0,237.5,207.5)"/>
      <rect x="235" y="210" width="5" height="5" transform="rotate(0,237.5,212.5)"/>
      <rect x="235" y="215" width="5" height="5" transform="rotate(0,237.5,217.5)"/>
      <rect x="25" y="30" width="5" height="5" transform="rotate(0,27.5,32.5)"/>
      <rect x="30" y="25" width="5" height="5" transform="rotate(0,32.5,27.5)"/>
      <rect x="30" y="30" width="5" height="5" transform="rotate(0,32.5,32.5)"/>
      <rect x="30" y="35" width="5" height="5" transform="rotate(0,32.5,37.5)"/>
      <rect x="35" y="30" width="5" height="5" transform="rotate(0,37.5,32.5)"/>
      <rect x="215" y="30" width="5" height="5" transform="rotate(0,217.5,32.5)"/>
      <rect x="220" y="25" width="5" height="5" transform="rotate(0,222.5,27.5)"/>
      <rect x="220" y="30" width="5" height="5" transform="rotate(0,222.5,32.5)"/>
      <rect x="220" y="35" width="5" height="5" transform="rotate(0,222.5,37.5)"/>
      <rect x="225" y="30" width="5" height="5" transform="rotate(0,227.5,32.5)"/>
      <rect x="25" y="220" width="5" height="5" transform="rotate(0,27.5,222.5)"/>
      <rect x="30" y="215" width="5" height="5" transform="rotate(0,32.5,217.5)"/>
      <rect x="30" y="220" width="5" height="5" transform="rotate(0,32.5,222.5)"/>
      <rect x="30" y="225" width="5" height="5" transform="rotate(0,32.5,227.5)"/>
      <rect x="35" y="220" width="5" height="5" transform="rotate(0,37.5,222.5)"/>
      <circle cx="17.5" cy="127.5" r="2.5" transform="rotate(0,17.5,127.5)"/>
      <circle cx="17.5" cy="197.5" r="2.5" transform="rotate(0,17.5,197.5)"/>
      <circle cx="22.5" cy="132.5" r="2.5" transform="rotate(0,22.5,132.5)"/>
      <circle cx="32.5" cy="177.5" r="2.5" transform="rotate(0,32.5,177.5)"/>
      <circle cx="47.5" cy="77.5" r="2.5" transform="rotate(0,47.5,77.5)"/>
      <circle cx="47.5" cy="97.5" r="2.5" transform="rotate(0,47.5,97.5)"/>
      <circle cx="47.5" cy="127.5" r="2.5" transform="rotate(0,47.5,127.5)"/>
      <circle cx="47.5" cy="157.5" r="2.5" transform="rotate(0,47.5,157.5)"/>
      <circle cx="57.5" cy="22.5" r="2.5" transform="rotate(0,57.5,22.5)"/>
      <circle cx="67.5" cy="172.5" r="2.5" transform="rotate(0,67.5,172.5)"/>
      <circle cx="67.5" cy="197.5" r="2.5" transform="rotate(0,67.5,197.5)"/>
      <circle cx="72.5" cy="202.5" r="2.5" transform="rotate(0,72.5,202.5)"/>
      <circle cx="82.5" cy="187.5" r="2.5" transform="rotate(0,82.5,187.5)"/>
      <circle cx="82.5" cy="202.5" r="2.5" transform="rotate(0,82.5,202.5)"/>
      <circle cx="82.5" cy="237.5" r="2.5" transform="rotate(0,82.5,237.5)"/>
      <circle cx="87.5" cy="127.5" r="2.5" transform="rotate(0,87.5,127.5)"/>
      <circle cx="87.5" cy="147.5" r="2.5" transform="rotate(0,87.5,147.5)"/>
      <circle cx="87.5" cy="162.5" r="2.5" transform="rotate(0,87.5,162.5)"/>
      <circle cx="97.5" cy="67.5" r="2.5" transform="rotate(0,97.5,67.5)"/>
      <circle cx="97.5" cy="77.5" r="2.5" transform="rotate(0,97.5,77.5)"/>
      <circle cx="97.5" cy="167.5" r="2.5" transform="rotate(0,97.5,167.5)"/>
      <circle cx="107.5" cy="62.5" r="2.5" transform="rotate(0,107.5,62.5)"/>
      <circle cx="127.5" cy="47.5" r="2.5" transform="rotate(0,127.5,47.5)"/>
      <circle cx="127.5" cy="167.5" r="2.5" transform="rotate(0,127.5,167.5)"/>
      <circle cx="127.5" cy="207.5" r="2.5" transform="rotate(0,127.5,207.5)"/>
      <circle cx="142.5" cy="77.5" r="2.5" transform="rotate(0,142.5,77.5)"/>
      <circle cx="142.5" cy="187.5" r="2.5" transform="rotate(0,142.5,187.5)"/>
      <circle cx="147.5" cy="177.5" r="2.5" transform="rotate(0,147.5,177.5)"/>
      <circle cx="152.5" cy="77.5" r="2.5" transform="rotate(0,152.5,77.5)"/>
      <circle cx="157.5" cy="27.5" r="2.5" transform="rotate(0,157.5,27.5)"/>
      <circle cx="157.5" cy="217.5" r="2.5" transform="rotate(0,157.5,217.5)"/>
      <circle cx="172.5" cy="62.5" r="2.5" transform="rotate(0,172.5,62.5)"/>
      <circle cx="172.5" cy="72.5" r="2.5" transform="rotate(0,172.5,72.5)"/>
      <circle cx="182.5" cy="87.5" r="2.5" transform="rotate(0,182.5,87.5)"/>
      <circle cx="182.5" cy="222.5" r="2.5" transform="rotate(0,182.5,222.5)"/>
      <circle cx="187.5" cy="207.5" r="2.5" transform="rotate(0,187.5,207.5)"/>
      <circle cx="192.5" cy="67.5" r="2.5" transform="rotate(0,192.5,67.5)"/>
      <circle cx="192.5" cy="87.5" r="2.5" transform="rotate(0,192.5,87.5)"/>
      <circle cx="197.5" cy="17.5" r="2.5" transform="rotate(0,197.5,17.5)"/>
      <circle cx="197.5" cy="47.5" r="2.5" transform="rotate(0,197.5,47.5)"/>
      <circle cx="197.5" cy="82.5" r="2.5" transform="rotate(0,197.5,82.5)"/>
      <circle cx="207.5" cy="127.5" r="2.5" transform="rotate(0,207.5,127.5)"/>
      <circle cx="207.5" cy="182.5" r="2.5" transform="rotate(0,207.5,182.5)"/>
      <circle cx="207.5" cy="207.5" r="2.5" transform="rotate(0,207.5,207.5)"/>
      <circle cx="217.5" cy="152.5" r="2.5" transform="rotate(0,217.5,152.5)"/>
      <circle cx="227.5" cy="122.5" r="2.5" transform="rotate(0,227.5,122.5)"/>
      <circle cx="237.5" cy="162.5" r="2.5" transform="rotate(0,237.5,162.5)"/>
      <circle cx="237.5" cy="232.5" r="2.5" transform="rotate(0,237.5,232.5)"/>
    </clipPath>
  </defs>
  <rect x="0" y="0" height="256" width="256" clip-path="url('#clip-path-background-color')" fill="#fff0" rx="25"/>
  <rect x="15" y="15" height="225" width="225" clip-path="url('#clip-path-dot-color')" fill="#000"/>
  <image/>
  <g>
    <svg xmlns="http://www.w3.org/2000/svg" width="59px" height="59px" fill="none" viewBox="0 0 139 170" x="98" y="98">
      <path fill="#000" d="M69.514.442C21.98.442.468 43.164.468 70.958c0 52.585 68.996 98.6 68.996 98.6s68.996-46.014 68.997-98.6c0-27.794-21.41-70.516-68.947-70.516Zm35.743 43.907c-5.431 3.932-8.843 5.08-13.054 5.893l.075 34.834 12.979.075c-.085 6.066-.972 9.903-1.939 11.56l-23.795-.148V50.838h-16.56V77.93c0 18.61-12.097 23.208-26.629 19.603-1.266-1.995-2.267-9.186-1.938-13.725 13.582 5.246 16.235.707 16.073-10.309l-.036-20.871c-6.044-.328-11.606 4.192-16.782 12.606l.596-15.887c6.089-6.872 14.748-10.48 24.466-10.667l27.971-.148c6.747-.057 10.797-3.49 13.576-5.818 3.667 2.71 5.23 6.649 4.997 11.636Z"/>
    </svg>
  </g>
</svg>